  0
SECTION
  2
HEADER
  9
$ANGBASE
  50
0.0
  9
$ANGDIR
  70
1
  9
$MEASUREMENT
  70
0
  0
ENDSEC
  0
SECTION
  2
TABLES
  0
TABLE
  2
LTYPE
  70
4
  0
LTYPE
  5
40F
  2
CONTINUOUS
  70
0
  3
Solid line
  72
65
  73
0
  40
0.0
  0
LTYPE
  5
410
  2
DASHDOT
 70
0
  3
Dash Dot ____ _ ____ _
 72
65
 73
4
 40
2.0
 49
1.25
 49
-0.25
 49
0.25
 49
-0.25
  0
LTYPE
  5
411
  2
DASHED
 70
0
  3
Dashed __ __ __ __ __
 72
65
 73
2
 40
0.75
 49
0.5
 49
-0.25
  0
LTYPE
  5
43B
  2
DOTTED
 70
0
  3
Dotted .  .  .  .
 72
65
 73
2
 40
0.2
 49
0.0
 49
-0.2
  0
ENDTAB
  0
TABLE
  2
STYLE
  70
4
  0
STYLE
  2
KICAD
  70
0
  40
0
  41
1
  42
1
  50
0
  71
0
  3
isocp.shx
  0
STYLE
  2
KICADB
  70
0
  40
0
  41
1
  42
1
  50
0
  71
0
  3
isocp.shx
  0
STYLE
  2
KICADI
  70
0
  40
0
  41
1
  42
1
  50
15
  71
0
  3
isocp.shx
  0
STYLE
  2
KICADBI
  70
0
  40
0
  41
1
  42
1
  50
15
  71
0
  3
isocp.shx
  0
ENDTAB
  0
TABLE
  2
LAYER
  70
1
  0
LAYER
  2
BLACK
  70
0
  62
7
  6
CONTINUOUS
  0
ENDTAB
  0
ENDSEC
  0
SECTION
  2
ENTITIES
0
LINE
8
BLACK
6
CONTINUOUS
10
5.4
20
-2.70497
11
5.4
21
-2.70497
0
LINE
8
BLACK
6
CONTINUOUS
10
5.4
20
-2.70497
11
5.4
21
-2.70496
0
LINE
8
BLACK
6
CONTINUOUS
10
5.4
20
-2.70496
11
5.4
21
-2.70493
0
LINE
8
BLACK
6
CONTINUOUS
10
5.4
20
-2.70493
11
5.40005
21
-2.70446
0
LINE
8
BLACK
6
CONTINUOUS
10
5.40005
20
-2.70446
11
5.4001
21
-2.70399
0
LINE
8
BLACK
6
CONTINUOUS
10
5.4001
20
-2.70399
11
5.40011
21
-2.70398
0
LINE
8
BLACK
6
CONTINUOUS
10
5.40011
20
-2.70398
11
5.40011
21
-2.70396
0
LINE
8
BLACK
6
CONTINUOUS
10
5.40011
20
-2.70396
11
5.40025
21
-2.70351
0
LINE
8
BLACK
6
CONTINUOUS
10
5.40025
20
-2.70351
11
5.40039
21
-2.70306
0
LINE
8
BLACK
6
CONTINUOUS
10
5.40039
20
-2.70306
11
5.4004
21
-2.70305
0
LINE
8
BLACK
6
CONTINUOUS
10
5.4004
20
-2.70305
11
5.4004
21
-2.70303
0
LINE
8
BLACK
6
CONTINUOUS
10
5.4004
20
-2.70303
11
5.40063
21
-2.70262
0
LINE
8
BLACK
6
CONTINUOUS
10
5.40063
20
-2.70262
11
5.40085
21
-2.7022
0
LINE
8
BLACK
6
CONTINUOUS
10
5.40085
20
-2.7022
11
5.40087
21
-2.70219
0
LINE
8
BLACK
6
CONTINUOUS
10
5.40087
20
-2.70219
11
5.40087
21
-2.70218
0
LINE
8
BLACK
6
CONTINUOUS
10
5.40087
20
-2.70218
11
5.40118
21
-2.70182
0
LINE
8
BLACK
6
CONTINUOUS
10
5.40118
20
-2.70182
11
5.40148
21
-2.70145
0
LINE
8
BLACK
6
CONTINUOUS
10
5.40148
20
-2.70145
11
5.40149
21
-2.70144
0
LINE
8
BLACK
6
CONTINUOUS
10
5.40149
20
-2.70144
11
5.4015
21
-2.70143
0
LINE
8
BLACK
6
CONTINUOUS
10
5.4015
20
-2.70143
11
5.40187
21
-2.70113
0
LINE
8
BLACK
6
CONTINUOUS
10
5.40187
20
-2.70113
11
5.40223
21
-2.70084
0
LINE
8
BLACK
6
CONTINUOUS
10
5.40223
20
-2.70084
11
5.40225
21
-2.70083
0
LINE
8
BLACK
6
CONTINUOUS
10
5.40225
20
-2.70083
11
5.40226
21
-2.70082
0
LINE
8
BLACK
6
CONTINUOUS
10
5.40226
20
-2.70082
11
5.40268
21
-2.7006
0
LINE
8
BLACK
6
CONTINUOUS
10
5.40268
20
-2.7006
11
5.40309
21
-2.70038
0
LINE
8
BLACK
6
CONTINUOUS
10
5.40309
20
-2.70038
11
5.40311
21
-2.70037
0
LINE
8
BLACK
6
CONTINUOUS
10
5.40311
20
-2.70037
11
5.40313
21
-2.70036
0
LINE
8
BLACK
6
CONTINUOUS
10
5.40313
20
-2.70036
11
5.40358
21
-2.70023
0
LINE
8
BLACK
6
CONTINUOUS
10
5.40358
20
-2.70023
11
5.40403
21
-2.7001
0
LINE
8
BLACK
6
CONTINUOUS
10
5.40403
20
-2.7001
11
5.40405
21
-2.70009
0
LINE
8
BLACK
6
CONTINUOUS
10
5.40405
20
-2.70009
11
5.40406
21
-2.70009
0
LINE
8
BLACK
6
CONTINUOUS
10
5.40406
20
-2.70009
11
5.40453
21
-2.70005
0
LINE
8
BLACK
6
CONTINUOUS
10
5.40453
20
-2.70005
11
5.405
21
-2.7
0
LINE
8
BLACK
6
CONTINUOUS
10
5.405
20
-2.7
11
6.095
21
-2.7
0
LINE
8
BLACK
6
CONTINUOUS
10
6.095
20
-2.7
11
6.09503
21
-2.7
0
LINE
8
BLACK
6
CONTINUOUS
10
6.09503
20
-2.7
11
6.09503
21
-2.7
0
LINE
8
BLACK
6
CONTINUOUS
10
6.09503
20
-2.7
11
6.09504
21
-2.7
0
LINE
8
BLACK
6
CONTINUOUS
10
6.09504
20
-2.7
11
6.09507
21
-2.7
0
LINE
8
BLACK
6
CONTINUOUS
10
6.09507
20
-2.7
11
6.09554
21
-2.70005
0
LINE
8
BLACK
6
CONTINUOUS
10
6.09554
20
-2.70005
11
6.09601
21
-2.7001
0
LINE
8
BLACK
6
CONTINUOUS
10
6.09601
20
-2.7001
11
6.09602
21
-2.70011
0
LINE
8
BLACK
6
CONTINUOUS
10
6.09602
20
-2.70011
11
6.09604
21
-2.70011
0
LINE
8
BLACK
6
CONTINUOUS
10
6.09604
20
-2.70011
11
6.09649
21
-2.70025
0
LINE
8
BLACK
6
CONTINUOUS
10
6.09649
20
-2.70025
11
6.09694
21
-2.70039
0
LINE
8
BLACK
6
CONTINUOUS
10
6.09694
20
-2.70039
11
6.09695
21
-2.7004
0
LINE
8
BLACK
6
CONTINUOUS
10
6.09695
20
-2.7004
11
6.09697
21
-2.7004
0
LINE
8
BLACK
6
CONTINUOUS
10
6.09697
20
-2.7004
11
6.09738
21
-2.70063
0
LINE
8
BLACK
6
CONTINUOUS
10
6.09738
20
-2.70063
11
6.0978
21
-2.70085
0
LINE
8
BLACK
6
CONTINUOUS
10
6.0978
20
-2.70085
11
6.09781
21
-2.70087
0
LINE
8
BLACK
6
CONTINUOUS
10
6.09781
20
-2.70087
11
6.09782
21
-2.70087
0
LINE
8
BLACK
6
CONTINUOUS
10
6.09782
20
-2.70087
11
6.09818
21
-2.70118
0
LINE
8
BLACK
6
CONTINUOUS
10
6.09818
20
-2.70118
11
6.09855
21
-2.70148
0
LINE
8
BLACK
6
CONTINUOUS
10
6.09855
20
-2.70148
11
6.09856
21
-2.70149
0
LINE
8
BLACK
6
CONTINUOUS
10
6.09856
20
-2.70149
11
6.09857
21
-2.7015
0
LINE
8
BLACK
6
CONTINUOUS
10
6.09857
20
-2.7015
11
6.09887
21
-2.70187
0
LINE
8
BLACK
6
CONTINUOUS
10
6.09887
20
-2.70187
11
6.09916
21
-2.70223
0
LINE
8
BLACK
6
CONTINUOUS
10
6.09916
20
-2.70223
11
6.09917
21
-2.70225
0
LINE
8
BLACK
6
CONTINUOUS
10
6.09917
20
-2.70225
11
6.09918
21
-2.70226
0
LINE
8
BLACK
6
CONTINUOUS
10
6.09918
20
-2.70226
11
6.0994
21
-2.70268
0
LINE
8
BLACK
6
CONTINUOUS
10
6.0994
20
-2.70268
11
6.09962
21
-2.70309
0
LINE
8
BLACK
6
CONTINUOUS
10
6.09962
20
-2.70309
11
6.09963
21
-2.70311
0
LINE
8
BLACK
6
CONTINUOUS
10
6.09963
20
-2.70311
11
6.09964
21
-2.70313
0
LINE
8
BLACK
6
CONTINUOUS
10
6.09964
20
-2.70313
11
6.09977
21
-2.70358
0
LINE
8
BLACK
6
CONTINUOUS
10
6.09977
20
-2.70358
11
6.0999
21
-2.70403
0
LINE
8
BLACK
6
CONTINUOUS
10
6.0999
20
-2.70403
11
6.09991
21
-2.70405
0
LINE
8
BLACK
6
CONTINUOUS
10
6.09991
20
-2.70405
11
6.09991
21
-2.70406
0
LINE
8
BLACK
6
CONTINUOUS
10
6.09991
20
-2.70406
11
6.09995
21
-2.70453
0
LINE
8
BLACK
6
CONTINUOUS
10
6.09995
20
-2.70453
11
6.1
21
-2.705
0
LINE
8
BLACK
6
CONTINUOUS
10
6.1
20
-2.705
11
6.1
21
-3.395
0
LINE
8
BLACK
6
CONTINUOUS
10
6.1
20
-3.395
11
6.1
21
-3.39503
0
LINE
8
BLACK
6
CONTINUOUS
10
6.1
20
-3.39503
11
6.1
21
-3.39503
0
LINE
8
BLACK
6
CONTINUOUS
10
6.1
20
-3.39503
11
6.1
21
-3.39504
0
LINE
8
BLACK
6
CONTINUOUS
10
6.1
20
-3.39504
11
6.1
21
-3.39507
0
LINE
8
BLACK
6
CONTINUOUS
10
6.1
20
-3.39507
11
6.09995
21
-3.39554
0
LINE
8
BLACK
6
CONTINUOUS
10
6.09995
20
-3.39554
11
6.0999
21
-3.39601
0
LINE
8
BLACK
6
CONTINUOUS
10
6.0999
20
-3.39601
11
6.09989
21
-3.39602
0
LINE
8
BLACK
6
CONTINUOUS
10
6.09989
20
-3.39602
11
6.09989
21
-3.39604
0
LINE
8
BLACK
6
CONTINUOUS
10
6.09989
20
-3.39604
11
6.09975
21
-3.39649
0
LINE
8
BLACK
6
CONTINUOUS
10
6.09975
20
-3.39649
11
6.09961
21
-3.39694
0
LINE
8
BLACK
6
CONTINUOUS
10
6.09961
20
-3.39694
11
6.0996
21
-3.39695
0
LINE
8
BLACK
6
CONTINUOUS
10
6.0996
20
-3.39695
11
6.0996
21
-3.39697
0
LINE
8
BLACK
6
CONTINUOUS
10
6.0996
20
-3.39697
11
6.09937
21
-3.39738
0
LINE
8
BLACK
6
CONTINUOUS
10
6.09937
20
-3.39738
11
6.09915
21
-3.3978
0
LINE
8
BLACK
6
CONTINUOUS
10
6.09915
20
-3.3978
11
6.09913
21
-3.39781
0
LINE
8
BLACK
6
CONTINUOUS
10
6.09913
20
-3.39781
11
6.09913
21
-3.39782
0
LINE
8
BLACK
6
CONTINUOUS
10
6.09913
20
-3.39782
11
6.09882
21
-3.39818
0
LINE
8
BLACK
6
CONTINUOUS
10
6.09882
20
-3.39818
11
6.09852
21
-3.39855
0
LINE
8
BLACK
6
CONTINUOUS
10
6.09852
20
-3.39855
11
6.09851
21
-3.39856
0
LINE
8
BLACK
6
CONTINUOUS
10
6.09851
20
-3.39856
11
6.0985
21
-3.39857
0
LINE
8
BLACK
6
CONTINUOUS
10
6.0985
20
-3.39857
11
6.09813
21
-3.39887
0
LINE
8
BLACK
6
CONTINUOUS
10
6.09813
20
-3.39887
11
6.09777
21
-3.39916
0
LINE
8
BLACK
6
CONTINUOUS
10
6.09777
20
-3.39916
11
6.09775
21
-3.39917
0
LINE
8
BLACK
6
CONTINUOUS
10
6.09775
20
-3.39917
11
6.09774
21
-3.39918
0
LINE
8
BLACK
6
CONTINUOUS
10
6.09774
20
-3.39918
11
6.09732
21
-3.3994
0
LINE
8
BLACK
6
CONTINUOUS
10
6.09732
20
-3.3994
11
6.09691
21
-3.39962
0
LINE
8
BLACK
6
CONTINUOUS
10
6.09691
20
-3.39962
11
6.09689
21
-3.39963
0
LINE
8
BLACK
6
CONTINUOUS
10
6.09689
20
-3.39963
11
6.09687
21
-3.39964
0
LINE
8
BLACK
6
CONTINUOUS
10
6.09687
20
-3.39964
11
6.09642
21
-3.39977
0
LINE
8
BLACK
6
CONTINUOUS
10
6.09642
20
-3.39977
11
6.09597
21
-3.3999
0
LINE
8
BLACK
6
CONTINUOUS
10
6.09597
20
-3.3999
11
6.09595
21
-3.39991
0
LINE
8
BLACK
6
CONTINUOUS
10
6.09595
20
-3.39991
11
6.09594
21
-3.39991
0
LINE
8
BLACK
6
CONTINUOUS
10
6.09594
20
-3.39991
11
6.09547
21
-3.39995
0
LINE
8
BLACK
6
CONTINUOUS
10
6.09547
20
-3.39995
11
6.095
21
-3.4
0
LINE
8
BLACK
6
CONTINUOUS
10
6.095
20
-3.4
11
5.405
21
-3.4
0
LINE
8
BLACK
6
CONTINUOUS
10
5.405
20
-3.4
11
5.40497
21
-3.4
0
LINE
8
BLACK
6
CONTINUOUS
10
5.40497
20
-3.4
11
5.40497
21
-3.4
0
LINE
8
BLACK
6
CONTINUOUS
10
5.40497
20
-3.4
11
5.40496
21
-3.4
0
LINE
8
BLACK
6
CONTINUOUS
10
5.40496
20
-3.4
11
5.40493
21
-3.4
0
LINE
8
BLACK
6
CONTINUOUS
10
5.40493
20
-3.4
11
5.40446
21
-3.39995
0
LINE
8
BLACK
6
CONTINUOUS
10
5.40446
20
-3.39995
11
5.40399
21
-3.3999
0
LINE
8
BLACK
6
CONTINUOUS
10
5.40399
20
-3.3999
11
5.40398
21
-3.39989
0
LINE
8
BLACK
6
CONTINUOUS
10
5.40398
20
-3.39989
11
5.40396
21
-3.39989
0
LINE
8
BLACK
6
CONTINUOUS
10
5.40396
20
-3.39989
11
5.40351
21
-3.39975
0
LINE
8
BLACK
6
CONTINUOUS
10
5.40351
20
-3.39975
11
5.40306
21
-3.39961
0
LINE
8
BLACK
6
CONTINUOUS
10
5.40306
20
-3.39961
11
5.40305
21
-3.3996
0
LINE
8
BLACK
6
CONTINUOUS
10
5.40305
20
-3.3996
11
5.40303
21
-3.3996
0
LINE
8
BLACK
6
CONTINUOUS
10
5.40303
20
-3.3996
11
5.40262
21
-3.39937
0
LINE
8
BLACK
6
CONTINUOUS
10
5.40262
20
-3.39937
11
5.4022
21
-3.39915
0
LINE
8
BLACK
6
CONTINUOUS
10
5.4022
20
-3.39915
11
5.40219
21
-3.39913
0
LINE
8
BLACK
6
CONTINUOUS
10
5.40219
20
-3.39913
11
5.40218
21
-3.39913
0
LINE
8
BLACK
6
CONTINUOUS
10
5.40218
20
-3.39913
11
5.40182
21
-3.39882
0
LINE
8
BLACK
6
CONTINUOUS
10
5.40182
20
-3.39882
11
5.40145
21
-3.39852
0
LINE
8
BLACK
6
CONTINUOUS
10
5.40145
20
-3.39852
11
5.40144
21
-3.39851
0
LINE
8
BLACK
6
CONTINUOUS
10
5.40144
20
-3.39851
11
5.40143
21
-3.3985
0
LINE
8
BLACK
6
CONTINUOUS
10
5.40143
20
-3.3985
11
5.40113
21
-3.39813
0
LINE
8
BLACK
6
CONTINUOUS
10
5.40113
20
-3.39813
11
5.40084
21
-3.39777
0
LINE
8
BLACK
6
CONTINUOUS
10
5.40084
20
-3.39777
11
5.40083
21
-3.39775
0
LINE
8
BLACK
6
CONTINUOUS
10
5.40083
20
-3.39775
11
5.40082
21
-3.39774
0
LINE
8
BLACK
6
CONTINUOUS
10
5.40082
20
-3.39774
11
5.4006
21
-3.39732
0
LINE
8
BLACK
6
CONTINUOUS
10
5.4006
20
-3.39732
11
5.40038
21
-3.39691
0
LINE
8
BLACK
6
CONTINUOUS
10
5.40038
20
-3.39691
11
5.40037
21
-3.39689
0
LINE
8
BLACK
6
CONTINUOUS
10
5.40037
20
-3.39689
11
5.40036
21
-3.39687
0
LINE
8
BLACK
6
CONTINUOUS
10
5.40036
20
-3.39687
11
5.40023
21
-3.39642
0
LINE
8
BLACK
6
CONTINUOUS
10
5.40023
20
-3.39642
11
5.4001
21
-3.39597
0
LINE
8
BLACK
6
CONTINUOUS
10
5.4001
20
-3.39597
11
5.40009
21
-3.39595
0
LINE
8
BLACK
6
CONTINUOUS
10
5.40009
20
-3.39595
11
5.40009
21
-3.39594
0
LINE
8
BLACK
6
CONTINUOUS
10
5.40009
20
-3.39594
11
5.40005
21
-3.39547
0
LINE
8
BLACK
6
CONTINUOUS
10
5.40005
20
-3.39547
11
5.4
21
-3.395
0
LINE
8
BLACK
6
CONTINUOUS
10
5.4
20
-3.395
11
5.4
21
-2.705
0
LINE
8
BLACK
6
CONTINUOUS
10
5.4
20
-2.705
11
5.4
21
-2.70497
0
LINE
8
BLACK
6
CONTINUOUS
10
5.4656
20
-3.11
11
5.46233
21
-3.11327
0
LINE
8
BLACK
6
CONTINUOUS
10
5.46233
20
-3.11327
11
5.46257
21
-3.11573
0
LINE
8
BLACK
6
CONTINUOUS
10
5.46257
20
-3.11573
11
5.46372
21
-3.1195
0
LINE
8
BLACK
6
CONTINUOUS
10
5.46372
20
-3.1195
11
5.46557
21
-3.12298
0
LINE
8
BLACK
6
CONTINUOUS
10
5.46557
20
-3.12298
11
5.46807
21
-3.12602
0
LINE
8
BLACK
6
CONTINUOUS
10
5.46807
20
-3.12602
11
5.47112
21
-3.12852
0
LINE
8
BLACK
6
CONTINUOUS
10
5.47112
20
-3.12852
11
5.47459
21
-3.13038
0
LINE
8
BLACK
6
CONTINUOUS
10
5.47459
20
-3.13038
11
5.47836
21
-3.13152
0
LINE
8
BLACK
6
CONTINUOUS
10
5.47836
20
-3.13152
11
5.48248
21
-3.13193
0
LINE
8
BLACK
6
CONTINUOUS
10
5.48248
20
-3.13193
11
5.48664
21
-3.13185
0
LINE
8
BLACK
6
CONTINUOUS
10
5.48664
20
-3.13185
11
5.49
21
-3.12849
0
LINE
8
BLACK
6
CONTINUOUS
10
5.49
20
-3.12849
11
5.49
21
-3.11181
0
LINE
8
BLACK
6
CONTINUOUS
10
5.49
20
-3.11181
11
5.48228
21
-3.11181
0
LINE
8
BLACK
6
CONTINUOUS
10
5.48228
20
-3.11181
11
5.48228
21
-3.11
0
LINE
8
BLACK
6
CONTINUOUS
10
5.48228
20
-3.11
11
5.4656
21
-3.11
0
LINE
8
BLACK
6
CONTINUOUS
10
5.51772
20
-3.11
11
5.51772
21
-3.11181
0
LINE
8
BLACK
6
CONTINUOUS
10
5.51772
20
-3.11181
11
5.51
21
-3.11181
0
LINE
8
BLACK
6
CONTINUOUS
10
5.51
20
-3.11181
11
5.51
21
-3.12849
0
LINE
8
BLACK
6
CONTINUOUS
10
5.51
20
-3.12849
11
5.51336
21
-3.13185
0
LINE
8
BLACK
6
CONTINUOUS
10
5.51336
20
-3.13185
11
5.51752
21
-3.13193
0
LINE
8
BLACK
6
CONTINUOUS
10
5.51752
20
-3.13193
11
5.52164
21
-3.13152
0
LINE
8
BLACK
6
CONTINUOUS
10
5.52164
20
-3.13152
11
5.52541
21
-3.13038
0
LINE
8
BLACK
6
CONTINUOUS
10
5.52541
20
-3.13038
11
5.52888
21
-3.12852
0
LINE
8
BLACK
6
CONTINUOUS
10
5.52888
20
-3.12852
11
5.53193
21
-3.12602
0
LINE
8
BLACK
6
CONTINUOUS
10
5.53193
20
-3.12602
11
5.53443
21
-3.12298
0
LINE
8
BLACK
6
CONTINUOUS
10
5.53443
20
-3.12298
11
5.53628
21
-3.1195
0
LINE
8
BLACK
6
CONTINUOUS
10
5.53628
20
-3.1195
11
5.53743
21
-3.11573
0
LINE
8
BLACK
6
CONTINUOUS
10
5.53743
20
-3.11573
11
5.53767
21
-3.11327
0
LINE
8
BLACK
6
CONTINUOUS
10
5.53767
20
-3.11327
11
5.5344
21
-3.11
0
LINE
8
BLACK
6
CONTINUOUS
10
5.5344
20
-3.11
11
5.51772
21
-3.11
0
LINE
8
BLACK
6
CONTINUOUS
10
5.99512
20
-2.75047
11
5.98555
21
-2.75238
0
LINE
8
BLACK
6
CONTINUOUS
10
5.98555
20
-2.75238
11
5.97654
21
-2.75611
0
LINE
8
BLACK
6
CONTINUOUS
10
5.97654
20
-2.75611
11
5.96843
21
-2.76153
0
LINE
8
BLACK
6
CONTINUOUS
10
5.96843
20
-2.76153
11
5.96126
21
-2.76869
0
LINE
8
BLACK
6
CONTINUOUS
10
5.96126
20
-2.76869
11
5.96125
21
-2.7687
0
LINE
8
BLACK
6
CONTINUOUS
10
5.96125
20
-2.7687
11
5.96125
21
-2.76871
0
LINE
8
BLACK
6
CONTINUOUS
10
5.96125
20
-2.76871
11
5.96125
21
-2.76871
0
LINE
8
BLACK
6
CONTINUOUS
10
5.96125
20
-2.76871
11
5.96121
21
-2.76874
0
LINE
8
BLACK
6
CONTINUOUS
10
5.96121
20
-2.76874
11
5.96085
21
-2.76903
0
LINE
8
BLACK
6
CONTINUOUS
10
5.96085
20
-2.76903
11
5.9605
21
-2.76932
0
LINE
8
BLACK
6
CONTINUOUS
10
5.9605
20
-2.76932
11
5.96047
21
-2.76933
0
LINE
8
BLACK
6
CONTINUOUS
10
5.96047
20
-2.76933
11
5.96045
21
-2.76935
0
LINE
8
BLACK
6
CONTINUOUS
10
5.96045
20
-2.76935
11
5.96004
21
-2.76956
0
LINE
8
BLACK
6
CONTINUOUS
10
5.96004
20
-2.76956
11
5.95963
21
-2.76978
0
LINE
8
BLACK
6
CONTINUOUS
10
5.95963
20
-2.76978
11
5.95961
21
-2.76979
0
LINE
8
BLACK
6
CONTINUOUS
10
5.95961
20
-2.76979
11
5.95959
21
-2.7698
0
LINE
8
BLACK
6
CONTINUOUS
10
5.95959
20
-2.7698
11
5.95914
21
-2.76993
0
LINE
8
BLACK
6
CONTINUOUS
10
5.95914
20
-2.76993
11
5.9587
21
-2.77006
0
LINE
8
BLACK
6
CONTINUOUS
10
5.9587
20
-2.77006
11
5.95867
21
-2.77006
0
LINE
8
BLACK
6
CONTINUOUS
10
5.95867
20
-2.77006
11
5.95865
21
-2.77007
0
LINE
8
BLACK
6
CONTINUOUS
10
5.95865
20
-2.77007
11
5.95819
21
-2.77011
0
LINE
8
BLACK
6
CONTINUOUS
10
5.95819
20
-2.77011
11
5.95773
21
-2.77016
0
LINE
8
BLACK
6
CONTINUOUS
10
5.95773
20
-2.77016
11
5.80171
21
-2.77016
0
LINE
8
BLACK
6
CONTINUOUS
10
5.80171
20
-2.77016
11
5.80164
21
-2.77016
0
LINE
8
BLACK
6
CONTINUOUS
10
5.80164
20
-2.77016
11
5.80143
21
-2.77013
0
LINE
8
BLACK
6
CONTINUOUS
10
5.80143
20
-2.77013
11
5.80122
21
-2.77013
0
LINE
8
BLACK
6
CONTINUOUS
10
5.80122
20
-2.77013
11
5.8
21
-2.77001
0
LINE
8
BLACK
6
CONTINUOUS
10
5.8
20
-2.77001
11
5.79878
21
-2.77013
0
LINE
8
BLACK
6
CONTINUOUS
10
5.79878
20
-2.77013
11
5.79877
21
-2.77013
0
LINE
8
BLACK
6
CONTINUOUS
10
5.79877
20
-2.77013
11
5.79415
21
-2.77059
0
LINE
8
BLACK
6
CONTINUOUS
10
5.79415
20
-2.77059
11
5.78852
21
-2.7723
0
LINE
8
BLACK
6
CONTINUOUS
10
5.78852
20
-2.7723
11
5.78334
21
-2.77507
0
LINE
8
BLACK
6
CONTINUOUS
10
5.78334
20
-2.77507
11
5.77975
21
-2.77802
0
LINE
8
BLACK
6
CONTINUOUS
10
5.77975
20
-2.77802
11
5.77974
21
-2.77802
0
LINE
8
BLACK
6
CONTINUOUS
10
5.77974
20
-2.77802
11
5.7788
21
-2.7788
0
LINE
8
BLACK
6
CONTINUOUS
10
5.7788
20
-2.7788
11
5.77802
21
-2.77974
0
LINE
8
BLACK
6
CONTINUOUS
10
5.77802
20
-2.77974
11
5.77797
21
-2.7798
0
LINE
8
BLACK
6
CONTINUOUS
10
5.77797
20
-2.7798
11
5.77782
21
-2.77995
0
LINE
8
BLACK
6
CONTINUOUS
10
5.77782
20
-2.77995
11
5.77769
21
-2.78011
0
LINE
8
BLACK
6
CONTINUOUS
10
5.77769
20
-2.78011
11
5.6891
21
-2.86869
0
LINE
8
BLACK
6
CONTINUOUS
10
5.6891
20
-2.86869
11
5.68909
21
-2.8687
0
LINE
8
BLACK
6
CONTINUOUS
10
5.68909
20
-2.8687
11
5.68909
21
-2.86871
0
LINE
8
BLACK
6
CONTINUOUS
10
5.68909
20
-2.86871
11
5.68909
21
-2.86871
0
LINE
8
BLACK
6
CONTINUOUS
10
5.68909
20
-2.86871
11
5.68905
21
-2.86874
0
LINE
8
BLACK
6
CONTINUOUS
10
5.68905
20
-2.86874
11
5.68869
21
-2.86903
0
LINE
8
BLACK
6
CONTINUOUS
10
5.68869
20
-2.86903
11
5.68833
21
-2.86932
0
LINE
8
BLACK
6
CONTINUOUS
10
5.68833
20
-2.86932
11
5.68831
21
-2.86933
0
LINE
8
BLACK
6
CONTINUOUS
10
5.68831
20
-2.86933
11
5.68829
21
-2.86935
0
LINE
8
BLACK
6
CONTINUOUS
10
5.68829
20
-2.86935
11
5.68788
21
-2.86956
0
LINE
8
BLACK
6
CONTINUOUS
10
5.68788
20
-2.86956
11
5.68747
21
-2.86978
0
LINE
8
BLACK
6
CONTINUOUS
10
5.68747
20
-2.86978
11
5.68745
21
-2.86979
0
LINE
8
BLACK
6
CONTINUOUS
10
5.68745
20
-2.86979
11
5.68742
21
-2.8698
0
LINE
8
BLACK
6
CONTINUOUS
10
5.68742
20
-2.8698
11
5.68698
21
-2.86993
0
LINE
8
BLACK
6
CONTINUOUS
10
5.68698
20
-2.86993
11
5.68654
21
-2.87006
0
LINE
8
BLACK
6
CONTINUOUS
10
5.68654
20
-2.87006
11
5.68651
21
-2.87006
0
LINE
8
BLACK
6
CONTINUOUS
10
5.68651
20
-2.87006
11
5.68649
21
-2.87007
0
LINE
8
BLACK
6
CONTINUOUS
10
5.68649
20
-2.87007
11
5.68603
21
-2.87011
0
LINE
8
BLACK
6
CONTINUOUS
10
5.68603
20
-2.87011
11
5.68557
21
-2.87016
0
LINE
8
BLACK
6
CONTINUOUS
10
5.68557
20
-2.87016
11
5.58915
21
-2.87016
0
LINE
8
BLACK
6
CONTINUOUS
10
5.58915
20
-2.87016
11
5.58908
21
-2.87016
0
LINE
8
BLACK
6
CONTINUOUS
10
5.58908
20
-2.87016
11
5.58886
21
-2.87013
0
LINE
8
BLACK
6
CONTINUOUS
10
5.58886
20
-2.87013
11
5.58864
21
-2.87013
0
LINE
8
BLACK
6
CONTINUOUS
10
5.58864
20
-2.87013
11
5.58838
21
-2.87008
0
LINE
8
BLACK
6
CONTINUOUS
10
5.58838
20
-2.87008
11
5.58811
21
-2.87005
0
LINE
8
BLACK
6
CONTINUOUS
10
5.58811
20
-2.87005
11
5.5879
21
-2.86998
0
LINE
8
BLACK
6
CONTINUOUS
10
5.5879
20
-2.86998
11
5.58769
21
-2.86994
0
LINE
8
BLACK
6
CONTINUOUS
10
5.58769
20
-2.86994
11
5.58744
21
-2.86983
0
LINE
8
BLACK
6
CONTINUOUS
10
5.58744
20
-2.86983
11
5.58718
21
-2.86975
0
LINE
8
BLACK
6
CONTINUOUS
10
5.58718
20
-2.86975
11
5.58699
21
-2.86965
0
LINE
8
BLACK
6
CONTINUOUS
10
5.58699
20
-2.86965
11
5.58679
21
-2.86956
0
LINE
8
BLACK
6
CONTINUOUS
10
5.58679
20
-2.86956
11
5.58656
21
-2.86941
0
LINE
8
BLACK
6
CONTINUOUS
10
5.58656
20
-2.86941
11
5.58633
21
-2.86928
0
LINE
8
BLACK
6
CONTINUOUS
10
5.58633
20
-2.86928
11
5.58616
21
-2.86914
0
LINE
8
BLACK
6
CONTINUOUS
10
5.58616
20
-2.86914
11
5.58598
21
-2.86902
0
LINE
8
BLACK
6
CONTINUOUS
10
5.58598
20
-2.86902
11
5.58579
21
-2.86883
0
LINE
8
BLACK
6
CONTINUOUS
10
5.58579
20
-2.86883
11
5.58558
21
-2.86866
0
LINE
8
BLACK
6
CONTINUOUS
10
5.58558
20
-2.86866
11
5.58544
21
-2.86848
0
LINE
8
BLACK
6
CONTINUOUS
10
5.58544
20
-2.86848
11
5.58529
21
-2.86833
0
LINE
8
BLACK
6
CONTINUOUS
10
5.58529
20
-2.86833
11
5.58508
21
-2.86807
0
LINE
8
BLACK
6
CONTINUOUS
10
5.58508
20
-2.86807
11
5.58203
21
-2.86557
0
LINE
8
BLACK
6
CONTINUOUS
10
5.58203
20
-2.86557
11
5.57856
21
-2.86372
0
LINE
8
BLACK
6
CONTINUOUS
10
5.57856
20
-2.86372
11
5.57479
21
-2.86257
0
LINE
8
BLACK
6
CONTINUOUS
10
5.57479
20
-2.86257
11
5.57062
21
-2.86216
0
LINE
8
BLACK
6
CONTINUOUS
10
5.57062
20
-2.86216
11
5.54749
21
-2.86216
0
LINE
8
BLACK
6
CONTINUOUS
10
5.54749
20
-2.86216
11
5.54332
21
-2.86257
0
LINE
8
BLACK
6
CONTINUOUS
10
5.54332
20
-2.86257
11
5.53955
21
-2.86372
0
LINE
8
BLACK
6
CONTINUOUS
10
5.53955
20
-2.86372
11
5.53608
21
-2.86557
0
LINE
8
BLACK
6
CONTINUOUS
10
5.53608
20
-2.86557
11
5.5327
21
-2.86835
0
LINE
8
BLACK
6
CONTINUOUS
10
5.5327
20
-2.86835
11
5.53268
21
-2.86837
0
LINE
8
BLACK
6
CONTINUOUS
10
5.53268
20
-2.86837
11
5.53268
21
-2.86837
0
LINE
8
BLACK
6
CONTINUOUS
10
5.53268
20
-2.86837
11
5.53267
21
-2.86837
0
LINE
8
BLACK
6
CONTINUOUS
10
5.53267
20
-2.86837
11
5.53265
21
-2.86839
0
LINE
8
BLACK
6
CONTINUOUS
10
5.53265
20
-2.86839
11
5.53225
21
-2.86865
0
LINE
8
BLACK
6
CONTINUOUS
10
5.53225
20
-2.86865
11
5.53186
21
-2.8689
0
LINE
8
BLACK
6
CONTINUOUS
10
5.53186
20
-2.8689
11
5.53184
21
-2.86891
0
LINE
8
BLACK
6
CONTINUOUS
10
5.53184
20
-2.86891
11
5.53183
21
-2.86892
0
LINE
8
BLACK
6
CONTINUOUS
10
5.53183
20
-2.86892
11
5.53139
21
-2.8691
0
LINE
8
BLACK
6
CONTINUOUS
10
5.53139
20
-2.8691
11
5.53096
21
-2.86927
0
LINE
8
BLACK
6
CONTINUOUS
10
5.53096
20
-2.86927
11
5.53094
21
-2.86928
0
LINE
8
BLACK
6
CONTINUOUS
10
5.53094
20
-2.86928
11
5.53092
21
-2.86928
0
LINE
8
BLACK
6
CONTINUOUS
10
5.53092
20
-2.86928
11
5.53046
21
-2.86937
0
LINE
8
BLACK
6
CONTINUOUS
10
5.53046
20
-2.86937
11
5.53
21
-2.86946
0
LINE
8
BLACK
6
CONTINUOUS
10
5.53
20
-2.86946
11
5.52998
21
-2.86946
0
LINE
8
BLACK
6
CONTINUOUS
10
5.52998
20
-2.86946
11
5.52996
21
-2.86946
0
LINE
8
BLACK
6
CONTINUOUS
10
5.52996
20
-2.86946
11
5.5295
21
-2.86946
0
LINE
8
BLACK
6
CONTINUOUS
10
5.5295
20
-2.86946
11
5.52902
21
-2.86946
0
LINE
8
BLACK
6
CONTINUOUS
10
5.52902
20
-2.86946
11
5.529
21
-2.86945
0
LINE
8
BLACK
6
CONTINUOUS
10
5.529
20
-2.86945
11
5.52899
21
-2.86945
0
LINE
8
BLACK
6
CONTINUOUS
10
5.52899
20
-2.86945
11
5.52853
21
-2.86936
0
LINE
8
BLACK
6
CONTINUOUS
10
5.52853
20
-2.86936
11
5.52807
21
-2.86926
0
LINE
8
BLACK
6
CONTINUOUS
10
5.52807
20
-2.86926
11
5.52805
21
-2.86926
0
LINE
8
BLACK
6
CONTINUOUS
10
5.52805
20
-2.86926
11
5.52803
21
-2.86925
0
LINE
8
BLACK
6
CONTINUOUS
10
5.52803
20
-2.86925
11
5.5276
21
-2.86907
0
LINE
8
BLACK
6
CONTINUOUS
10
5.5276
20
-2.86907
11
5.52717
21
-2.86889
0
LINE
8
BLACK
6
CONTINUOUS
10
5.52717
20
-2.86889
11
5.52715
21
-2.86888
0
LINE
8
BLACK
6
CONTINUOUS
10
5.52715
20
-2.86888
11
5.52713
21
-2.86887
0
LINE
8
BLACK
6
CONTINUOUS
10
5.52713
20
-2.86887
11
5.52675
21
-2.86861
0
LINE
8
BLACK
6
CONTINUOUS
10
5.52675
20
-2.86861
11
5.52636
21
-2.86835
0
LINE
8
BLACK
6
CONTINUOUS
10
5.52636
20
-2.86835
11
5.52298
21
-2.86557
0
LINE
8
BLACK
6
CONTINUOUS
10
5.52298
20
-2.86557
11
5.5195
21
-2.86372
0
LINE
8
BLACK
6
CONTINUOUS
10
5.5195
20
-2.86372
11
5.51573
21
-2.86257
0
LINE
8
BLACK
6
CONTINUOUS
10
5.51573
20
-2.86257
11
5.51157
21
-2.86216
0
LINE
8
BLACK
6
CONTINUOUS
10
5.51157
20
-2.86216
11
5.48843
21
-2.86216
0
LINE
8
BLACK
6
CONTINUOUS
10
5.48843
20
-2.86216
11
5.48427
21
-2.86257
0
LINE
8
BLACK
6
CONTINUOUS
10
5.48427
20
-2.86257
11
5.4805
21
-2.86372
0
LINE
8
BLACK
6
CONTINUOUS
10
5.4805
20
-2.86372
11
5.47702
21
-2.86557
0
LINE
8
BLACK
6
CONTINUOUS
10
5.47702
20
-2.86557
11
5.47398
21
-2.86807
0
LINE
8
BLACK
6
CONTINUOUS
10
5.47398
20
-2.86807
11
5.47148
21
-2.87112
0
LINE
8
BLACK
6
CONTINUOUS
10
5.47148
20
-2.87112
11
5.46962
21
-2.87459
0
LINE
8
BLACK
6
CONTINUOUS
10
5.46962
20
-2.87459
11
5.46848
21
-2.87836
0
LINE
8
BLACK
6
CONTINUOUS
10
5.46848
20
-2.87836
11
5.46807
21
-2.88253
0
LINE
8
BLACK
6
CONTINUOUS
10
5.46807
20
-2.88253
11
5.46807
21
-2.91747
0
LINE
8
BLACK
6
CONTINUOUS
10
5.46807
20
-2.91747
11
5.46848
21
-2.92164
0
LINE
8
BLACK
6
CONTINUOUS
10
5.46848
20
-2.92164
11
5.46964
21
-2.92547
0
LINE
8
BLACK
6
CONTINUOUS
10
5.46964
20
-2.92547
11
5.46968
21
-2.92557
0
LINE
8
BLACK
6
CONTINUOUS
10
5.46968
20
-2.92557
11
5.46978
21
-2.92576
0
LINE
8
BLACK
6
CONTINUOUS
10
5.46978
20
-2.92576
11
5.46986
21
-2.92602
0
LINE
8
BLACK
6
CONTINUOUS
10
5.46986
20
-2.92602
11
5.46996
21
-2.92627
0
LINE
8
BLACK
6
CONTINUOUS
10
5.46996
20
-2.92627
11
5.47
21
-2.92648
0
LINE
8
BLACK
6
CONTINUOUS
10
5.47
20
-2.92648
11
5.47006
21
-2.92669
0
LINE
8
BLACK
6
CONTINUOUS
10
5.47006
20
-2.92669
11
5.47009
21
-2.92696
0
LINE
8
BLACK
6
CONTINUOUS
10
5.47009
20
-2.92696
11
5.47014
21
-2.92723
0
LINE
8
BLACK
6
CONTINUOUS
10
5.47014
20
-2.92723
11
5.47014
21
-2.92745
0
LINE
8
BLACK
6
CONTINUOUS
10
5.47014
20
-2.92745
11
5.47016
21
-2.92766
0
LINE
8
BLACK
6
CONTINUOUS
10
5.47016
20
-2.92766
11
5.47016
21
-3.01085
0
LINE
8
BLACK
6
CONTINUOUS
10
5.47016
20
-3.01085
11
5.47016
21
-3.01092
0
LINE
8
BLACK
6
CONTINUOUS
10
5.47016
20
-3.01092
11
5.47013
21
-3.01114
0
LINE
8
BLACK
6
CONTINUOUS
10
5.47013
20
-3.01114
11
5.47013
21
-3.01136
0
LINE
8
BLACK
6
CONTINUOUS
10
5.47013
20
-3.01136
11
5.47008
21
-3.01162
0
LINE
8
BLACK
6
CONTINUOUS
10
5.47008
20
-3.01162
11
5.47005
21
-3.01189
0
LINE
8
BLACK
6
CONTINUOUS
10
5.47005
20
-3.01189
11
5.46998
21
-3.0121
0
LINE
8
BLACK
6
CONTINUOUS
10
5.46998
20
-3.0121
11
5.46994
21
-3.01231
0
LINE
8
BLACK
6
CONTINUOUS
10
5.46994
20
-3.01231
11
5.46983
21
-3.01256
0
LINE
8
BLACK
6
CONTINUOUS
10
5.46983
20
-3.01256
11
5.46975
21
-3.01282
0
LINE
8
BLACK
6
CONTINUOUS
10
5.46975
20
-3.01282
11
5.46965
21
-3.01301
0
LINE
8
BLACK
6
CONTINUOUS
10
5.46965
20
-3.01301
11
5.46956
21
-3.01321
0
LINE
8
BLACK
6
CONTINUOUS
10
5.46956
20
-3.01321
11
5.46941
21
-3.01344
0
LINE
8
BLACK
6
CONTINUOUS
10
5.46941
20
-3.01344
11
5.46928
21
-3.01367
0
LINE
8
BLACK
6
CONTINUOUS
10
5.46928
20
-3.01367
11
5.46914
21
-3.01384
0
LINE
8
BLACK
6
CONTINUOUS
10
5.46914
20
-3.01384
11
5.46902
21
-3.01402
0
LINE
8
BLACK
6
CONTINUOUS
10
5.46902
20
-3.01402
11
5.46883
21
-3.01421
0
LINE
8
BLACK
6
CONTINUOUS
10
5.46883
20
-3.01421
11
5.46866
21
-3.01442
0
LINE
8
BLACK
6
CONTINUOUS
10
5.46866
20
-3.01442
11
5.46848
21
-3.01456
0
LINE
8
BLACK
6
CONTINUOUS
10
5.46848
20
-3.01456
11
5.46833
21
-3.01471
0
LINE
8
BLACK
6
CONTINUOUS
10
5.46833
20
-3.01471
11
5.46807
21
-3.01492
0
LINE
8
BLACK
6
CONTINUOUS
10
5.46807
20
-3.01492
11
5.46557
21
-3.01797
0
LINE
8
BLACK
6
CONTINUOUS
10
5.46557
20
-3.01797
11
5.46372
21
-3.02144
0
LINE
8
BLACK
6
CONTINUOUS
10
5.46372
20
-3.02144
11
5.46257
21
-3.02521
0
LINE
8
BLACK
6
CONTINUOUS
10
5.46257
20
-3.02521
11
5.46216
21
-3.02938
0
LINE
8
BLACK
6
CONTINUOUS
10
5.46216
20
-3.02938
11
5.46216
21
-3.05251
0
LINE
8
BLACK
6
CONTINUOUS
10
5.46216
20
-3.05251
11
5.46257
21
-3.05668
0
LINE
8
BLACK
6
CONTINUOUS
10
5.46257
20
-3.05668
11
5.46372
21
-3.06045
0
LINE
8
BLACK
6
CONTINUOUS
10
5.46372
20
-3.06045
11
5.46557
21
-3.06392
0
LINE
8
BLACK
6
CONTINUOUS
10
5.46557
20
-3.06392
11
5.46835
21
-3.0673
0
LINE
8
BLACK
6
CONTINUOUS
10
5.46835
20
-3.0673
11
5.46837
21
-3.06732
0
LINE
8
BLACK
6
CONTINUOUS
10
5.46837
20
-3.06732
11
5.46837
21
-3.06732
0
LINE
8
BLACK
6
CONTINUOUS
10
5.46837
20
-3.06732
11
5.46837
21
-3.06732
0
LINE
8
BLACK
6
CONTINUOUS
10
5.46837
20
-3.06732
11
5.46839
21
-3.06735
0
LINE
8
BLACK
6
CONTINUOUS
10
5.46839
20
-3.06735
11
5.46865
21
-3.06775
0
LINE
8
BLACK
6
CONTINUOUS
10
5.46865
20
-3.06775
11
5.4689
21
-3.06814
0
LINE
8
BLACK
6
CONTINUOUS
10
5.4689
20
-3.06814
11
5.46891
21
-3.06816
0
LINE
8
BLACK
6
CONTINUOUS
10
5.46891
20
-3.06816
11
5.46892
21
-3.06817
0
LINE
8
BLACK
6
CONTINUOUS
10
5.46892
20
-3.06817
11
5.4691
21
-3.06861
0
LINE
8
BLACK
6
CONTINUOUS
10
5.4691
20
-3.06861
11
5.46927
21
-3.06904
0
LINE
8
BLACK
6
CONTINUOUS
10
5.46927
20
-3.06904
11
5.46928
21
-3.06906
0
LINE
8
BLACK
6
CONTINUOUS
10
5.46928
20
-3.06906
11
5.46928
21
-3.06908
0
LINE
8
BLACK
6
CONTINUOUS
10
5.46928
20
-3.06908
11
5.46937
21
-3.06954
0
LINE
8
BLACK
6
CONTINUOUS
10
5.46937
20
-3.06954
11
5.46946
21
-3.07
0
LINE
8
BLACK
6
CONTINUOUS
10
5.46946
20
-3.07
11
5.46946
21
-3.07002
0
LINE
8
BLACK
6
CONTINUOUS
10
5.46946
20
-3.07002
11
5.46946
21
-3.07004
0
LINE
8
BLACK
6
CONTINUOUS
10
5.46946
20
-3.07004
11
5.46946
21
-3.0705
0
LINE
8
BLACK
6
CONTINUOUS
10
5.46946
20
-3.0705
11
5.46946
21
-3.07098
0
LINE
8
BLACK
6
CONTINUOUS
10
5.46946
20
-3.07098
11
5.46945
21
-3.07099
0
LINE
8
BLACK
6
CONTINUOUS
10
5.46945
20
-3.07099
11
5.46945
21
-3.07101
0
LINE
8
BLACK
6
CONTINUOUS
10
5.46945
20
-3.07101
11
5.46936
21
-3.07147
0
LINE
8
BLACK
6
CONTINUOUS
10
5.46936
20
-3.07147
11
5.46926
21
-3.07193
0
LINE
8
BLACK
6
CONTINUOUS
10
5.46926
20
-3.07193
11
5.46926
21
-3.07195
0
LINE
8
BLACK
6
CONTINUOUS
10
5.46926
20
-3.07195
11
5.46925
21
-3.07197
0
LINE
8
BLACK
6
CONTINUOUS
10
5.46925
20
-3.07197
11
5.46907
21
-3.0724
0
LINE
8
BLACK
6
CONTINUOUS
10
5.46907
20
-3.0724
11
5.46889
21
-3.07283
0
LINE
8
BLACK
6
CONTINUOUS
10
5.46889
20
-3.07283
11
5.46888
21
-3.07285
0
LINE
8
BLACK
6
CONTINUOUS
10
5.46888
20
-3.07285
11
5.46887
21
-3.07287
0
LINE
8
BLACK
6
CONTINUOUS
10
5.46887
20
-3.07287
11
5.46861
21
-3.07325
0
LINE
8
BLACK
6
CONTINUOUS
10
5.46861
20
-3.07325
11
5.46835
21
-3.07364
0
LINE
8
BLACK
6
CONTINUOUS
10
5.46835
20
-3.07364
11
5.46557
21
-3.07702
0
LINE
8
BLACK
6
CONTINUOUS
10
5.46557
20
-3.07702
11
5.46372
21
-3.0805
0
LINE
8
BLACK
6
CONTINUOUS
10
5.46372
20
-3.0805
11
5.46257
21
-3.08427
0
LINE
8
BLACK
6
CONTINUOUS
10
5.46257
20
-3.08427
11
5.46233
21
-3.08673
0
LINE
8
BLACK
6
CONTINUOUS
10
5.46233
20
-3.08673
11
5.4656
21
-3.09
0
LINE
8
BLACK
6
CONTINUOUS
10
5.4656
20
-3.09
11
5.48228
21
-3.09
0
LINE
8
BLACK
6
CONTINUOUS
10
5.48228
20
-3.09
11
5.48228
21
-3.08819
0
LINE
8
BLACK
6
CONTINUOUS
10
5.48228
20
-3.08819
11
5.51772
21
-3.08819
0
LINE
8
BLACK
6
CONTINUOUS
10
5.51772
20
-3.08819
11
5.51772
21
-3.09
0
LINE
8
BLACK
6
CONTINUOUS
10
5.51772
20
-3.09
11
5.5344
21
-3.09
0
LINE
8
BLACK
6
CONTINUOUS
10
5.5344
20
-3.09
11
5.53767
21
-3.08673
0
LINE
8
BLACK
6
CONTINUOUS
10
5.53767
20
-3.08673
11
5.53743
21
-3.08427
0
LINE
8
BLACK
6
CONTINUOUS
10
5.53743
20
-3.08427
11
5.53628
21
-3.0805
0
LINE
8
BLACK
6
CONTINUOUS
10
5.53628
20
-3.0805
11
5.53443
21
-3.07702
0
LINE
8
BLACK
6
CONTINUOUS
10
5.53443
20
-3.07702
11
5.53165
21
-3.07364
0
LINE
8
BLACK
6
CONTINUOUS
10
5.53165
20
-3.07364
11
5.53163
21
-3.07362
0
LINE
8
BLACK
6
CONTINUOUS
10
5.53163
20
-3.07362
11
5.53163
21
-3.07362
0
LINE
8
BLACK
6
CONTINUOUS
10
5.53163
20
-3.07362
11
5.53163
21
-3.07362
0
LINE
8
BLACK
6
CONTINUOUS
10
5.53163
20
-3.07362
11
5.53161
21
-3.07359
0
LINE
8
BLACK
6
CONTINUOUS
10
5.53161
20
-3.07359
11
5.53135
21
-3.0732
0
LINE
8
BLACK
6
CONTINUOUS
10
5.53135
20
-3.0732
11
5.5311
21
-3.07281
0
LINE
8
BLACK
6
CONTINUOUS
10
5.5311
20
-3.07281
11
5.53109
21
-3.07279
0
LINE
8
BLACK
6
CONTINUOUS
10
5.53109
20
-3.07279
11
5.53108
21
-3.07277
0
LINE
8
BLACK
6
CONTINUOUS
10
5.53108
20
-3.07277
11
5.5309
21
-3.07234
0
LINE
8
BLACK
6
CONTINUOUS
10
5.5309
20
-3.07234
11
5.53073
21
-3.0719
0
LINE
8
BLACK
6
CONTINUOUS
10
5.53073
20
-3.0719
11
5.53072
21
-3.07188
0
LINE
8
BLACK
6
CONTINUOUS
10
5.53072
20
-3.07188
11
5.53072
21
-3.07187
0
LINE
8
BLACK
6
CONTINUOUS
10
5.53072
20
-3.07187
11
5.53063
21
-3.07141
0
LINE
8
BLACK
6
CONTINUOUS
10
5.53063
20
-3.07141
11
5.53054
21
-3.07095
0
LINE
8
BLACK
6
CONTINUOUS
10
5.53054
20
-3.07095
11
5.53054
21
-3.07093
0
LINE
8
BLACK
6
CONTINUOUS
10
5.53054
20
-3.07093
11
5.53054
21
-3.07091
0
LINE
8
BLACK
6
CONTINUOUS
10
5.53054
20
-3.07091
11
5.53054
21
-3.07044
0
LINE
8
BLACK
6
CONTINUOUS
10
5.53054
20
-3.07044
11
5.53054
21
-3.06997
0
LINE
8
BLACK
6
CONTINUOUS
10
5.53054
20
-3.06997
11
5.53055
21
-3.06995
0
LINE
8
BLACK
6
CONTINUOUS
10
5.53055
20
-3.06995
11
5.53055
21
-3.06993
0
LINE
8
BLACK
6
CONTINUOUS
10
5.53055
20
-3.06993
11
5.53064
21
-3.06947
0
LINE
8
BLACK
6
CONTINUOUS
10
5.53064
20
-3.06947
11
5.53074
21
-3.06901
0
LINE
8
BLACK
6
CONTINUOUS
10
5.53074
20
-3.06901
11
5.53074
21
-3.06899
0
LINE
8
BLACK
6
CONTINUOUS
10
5.53074
20
-3.06899
11
5.53075
21
-3.06898
0
LINE
8
BLACK
6
CONTINUOUS
10
5.53075
20
-3.06898
11
5.53093
21
-3.06854
0
LINE
8
BLACK
6
CONTINUOUS
10
5.53093
20
-3.06854
11
5.53111
21
-3.06811
0
LINE
8
BLACK
6
CONTINUOUS
10
5.53111
20
-3.06811
11
5.53112
21
-3.0681
0
LINE
8
BLACK
6
CONTINUOUS
10
5.53112
20
-3.0681
11
5.53113
21
-3.06808
0
LINE
8
BLACK
6
CONTINUOUS
10
5.53113
20
-3.06808
11
5.53139
21
-3.06769
0
LINE
8
BLACK
6
CONTINUOUS
10
5.53139
20
-3.06769
11
5.53165
21
-3.0673
0
LINE
8
BLACK
6
CONTINUOUS
10
5.53165
20
-3.0673
11
5.53443
21
-3.06392
0
LINE
8
BLACK
6
CONTINUOUS
10
5.53443
20
-3.06392
11
5.53628
21
-3.06045
0
LINE
8
BLACK
6
CONTINUOUS
10
5.53628
20
-3.06045
11
5.53743
21
-3.05668
0
LINE
8
BLACK
6
CONTINUOUS
10
5.53743
20
-3.05668
11
5.53784
21
-3.05251
0
LINE
8
BLACK
6
CONTINUOUS
10
5.53784
20
-3.05251
11
5.53784
21
-3.02938
0
LINE
8
BLACK
6
CONTINUOUS
10
5.53784
20
-3.02938
11
5.53743
21
-3.02521
0
LINE
8
BLACK
6
CONTINUOUS
10
5.53743
20
-3.02521
11
5.53628
21
-3.02144
0
LINE
8
BLACK
6
CONTINUOUS
10
5.53628
20
-3.02144
11
5.53443
21
-3.01797
0
LINE
8
BLACK
6
CONTINUOUS
10
5.53443
20
-3.01797
11
5.53193
21
-3.01492
0
LINE
8
BLACK
6
CONTINUOUS
10
5.53193
20
-3.01492
11
5.53167
21
-3.01471
0
LINE
8
BLACK
6
CONTINUOUS
10
5.53167
20
-3.01471
11
5.53162
21
-3.01467
0
LINE
8
BLACK
6
CONTINUOUS
10
5.53162
20
-3.01467
11
5.53146
21
-3.01451
0
LINE
8
BLACK
6
CONTINUOUS
10
5.53146
20
-3.01451
11
5.53129
21
-3.01437
0
LINE
8
BLACK
6
CONTINUOUS
10
5.53129
20
-3.01437
11
5.53112
21
-3.01416
0
LINE
8
BLACK
6
CONTINUOUS
10
5.53112
20
-3.01416
11
5.53094
21
-3.01397
0
LINE
8
BLACK
6
CONTINUOUS
10
5.53094
20
-3.01397
11
5.53082
21
-3.01378
0
LINE
8
BLACK
6
CONTINUOUS
10
5.53082
20
-3.01378
11
5.53068
21
-3.01361
0
LINE
8
BLACK
6
CONTINUOUS
10
5.53068
20
-3.01361
11
5.53055
21
-3.01338
0
LINE
8
BLACK
6
CONTINUOUS
10
5.53055
20
-3.01338
11
5.5304
21
-3.01315
0
LINE
8
BLACK
6
CONTINUOUS
10
5.5304
20
-3.01315
11
5.53032
21
-3.01295
0
LINE
8
BLACK
6
CONTINUOUS
10
5.53032
20
-3.01295
11
5.53022
21
-3.01275
0
LINE
8
BLACK
6
CONTINUOUS
10
5.53022
20
-3.01275
11
5.53014
21
-3.01249
0
LINE
8
BLACK
6
CONTINUOUS
10
5.53014
20
-3.01249
11
5.53004
21
-3.01224
0
LINE
8
BLACK
6
CONTINUOUS
10
5.53004
20
-3.01224
11
5.53
21
-3.01203
0
LINE
8
BLACK
6
CONTINUOUS
10
5.53
20
-3.01203
11
5.52994
21
-3.01182
0
LINE
8
BLACK
6
CONTINUOUS
10
5.52994
20
-3.01182
11
5.52991
21
-3.01155
0
LINE
8
BLACK
6
CONTINUOUS
10
5.52991
20
-3.01155
11
5.52986
21
-3.01129
0
LINE
8
BLACK
6
CONTINUOUS
10
5.52986
20
-3.01129
11
5.52986
21
-3.01107
0
LINE
8
BLACK
6
CONTINUOUS
10
5.52986
20
-3.01107
11
5.52984
21
-3.01085
0
LINE
8
BLACK
6
CONTINUOUS
10
5.52984
20
-3.01085
11
5.52984
21
-2.93943
0
LINE
8
BLACK
6
CONTINUOUS
10
5.52984
20
-2.93943
11
5.52984
21
-2.93937
0
LINE
8
BLACK
6
CONTINUOUS
10
5.52984
20
-2.93937
11
5.52987
21
-2.93913
0
LINE
8
BLACK
6
CONTINUOUS
10
5.52987
20
-2.93913
11
5.52987
21
-2.9389
0
LINE
8
BLACK
6
CONTINUOUS
10
5.52987
20
-2.9389
11
5.52992
21
-2.93865
0
LINE
8
BLACK
6
CONTINUOUS
10
5.52992
20
-2.93865
11
5.52995
21
-2.9384
0
LINE
8
BLACK
6
CONTINUOUS
10
5.52995
20
-2.9384
11
5.53002
21
-2.93817
0
LINE
8
BLACK
6
CONTINUOUS
10
5.53002
20
-2.93817
11
5.53007
21
-2.93795
0
LINE
8
BLACK
6
CONTINUOUS
10
5.53007
20
-2.93795
11
5.53017
21
-2.93771
0
LINE
8
BLACK
6
CONTINUOUS
10
5.53017
20
-2.93771
11
5.53025
21
-2.93747
0
LINE
8
BLACK
6
CONTINUOUS
10
5.53025
20
-2.93747
11
5.53036
21
-2.93726
0
LINE
8
BLACK
6
CONTINUOUS
10
5.53036
20
-2.93726
11
5.53045
21
-2.93705
0
LINE
8
BLACK
6
CONTINUOUS
10
5.53045
20
-2.93705
11
5.53059
21
-2.93683
0
LINE
8
BLACK
6
CONTINUOUS
10
5.53059
20
-2.93683
11
5.53072
21
-2.93661
0
LINE
8
BLACK
6
CONTINUOUS
10
5.53072
20
-2.93661
11
5.53087
21
-2.93643
0
LINE
8
BLACK
6
CONTINUOUS
10
5.53087
20
-2.93643
11
5.531
21
-2.93624
0
LINE
8
BLACK
6
CONTINUOUS
10
5.531
20
-2.93624
11
5.53118
21
-2.93606
0
LINE
8
BLACK
6
CONTINUOUS
10
5.53118
20
-2.93606
11
5.53134
21
-2.93586
0
LINE
8
BLACK
6
CONTINUOUS
10
5.53134
20
-2.93586
11
5.53153
21
-2.93572
0
LINE
8
BLACK
6
CONTINUOUS
10
5.53153
20
-2.93572
11
5.53169
21
-2.93555
0
LINE
8
BLACK
6
CONTINUOUS
10
5.53169
20
-2.93555
11
5.5319
21
-2.93541
0
LINE
8
BLACK
6
CONTINUOUS
10
5.5319
20
-2.93541
11
5.5321
21
-2.93525
0
LINE
8
BLACK
6
CONTINUOUS
10
5.5321
20
-2.93525
11
5.53231
21
-2.93514
0
LINE
8
BLACK
6
CONTINUOUS
10
5.53231
20
-2.93514
11
5.5325
21
-2.93502
0
LINE
8
BLACK
6
CONTINUOUS
10
5.5325
20
-2.93502
11
5.53274
21
-2.93492
0
LINE
8
BLACK
6
CONTINUOUS
10
5.53274
20
-2.93492
11
5.53297
21
-2.9348
0
LINE
8
BLACK
6
CONTINUOUS
10
5.53297
20
-2.9348
11
5.53319
21
-2.93473
0
LINE
8
BLACK
6
CONTINUOUS
10
5.53319
20
-2.93473
11
5.53341
21
-2.93465
0
LINE
8
BLACK
6
CONTINUOUS
10
5.53341
20
-2.93465
11
5.53366
21
-2.9346
0
LINE
8
BLACK
6
CONTINUOUS
10
5.53366
20
-2.9346
11
5.53391
21
-2.93452
0
LINE
8
BLACK
6
CONTINUOUS
10
5.53391
20
-2.93452
11
5.53414
21
-2.9345
0
LINE
8
BLACK
6
CONTINUOUS
10
5.53414
20
-2.9345
11
5.53437
21
-2.93446
0
LINE
8
BLACK
6
CONTINUOUS
10
5.53437
20
-2.93446
11
5.53462
21
-2.93446
0
LINE
8
BLACK
6
CONTINUOUS
10
5.53462
20
-2.93446
11
5.53488
21
-2.93444
0
LINE
8
BLACK
6
CONTINUOUS
10
5.53488
20
-2.93444
11
5.53511
21
-2.93446
0
LINE
8
BLACK
6
CONTINUOUS
10
5.53511
20
-2.93446
11
5.53534
21
-2.93446
0
LINE
8
BLACK
6
CONTINUOUS
10
5.53534
20
-2.93446
11
5.53559
21
-2.93451
0
LINE
8
BLACK
6
CONTINUOUS
10
5.53559
20
-2.93451
11
5.53585
21
-2.93454
0
LINE
8
BLACK
6
CONTINUOUS
10
5.53585
20
-2.93454
11
5.53607
21
-2.93461
0
LINE
8
BLACK
6
CONTINUOUS
10
5.53607
20
-2.93461
11
5.5363
21
-2.93465
0
LINE
8
BLACK
6
CONTINUOUS
10
5.5363
20
-2.93465
11
5.53653
21
-2.93475
0
LINE
8
BLACK
6
CONTINUOUS
10
5.53653
20
-2.93475
11
5.53678
21
-2.93483
0
LINE
8
BLACK
6
CONTINUOUS
10
5.53678
20
-2.93483
11
5.53698
21
-2.93494
0
LINE
8
BLACK
6
CONTINUOUS
10
5.53698
20
-2.93494
11
5.5372
21
-2.93503
0
LINE
8
BLACK
6
CONTINUOUS
10
5.5372
20
-2.93503
11
5.53955
21
-2.93628
0
LINE
8
BLACK
6
CONTINUOUS
10
5.53955
20
-2.93628
11
5.54332
21
-2.93743
0
LINE
8
BLACK
6
CONTINUOUS
10
5.54332
20
-2.93743
11
5.54749
21
-2.93784
0
LINE
8
BLACK
6
CONTINUOUS
10
5.54749
20
-2.93784
11
5.57062
21
-2.93784
0
LINE
8
BLACK
6
CONTINUOUS
10
5.57062
20
-2.93784
11
5.57479
21
-2.93743
0
LINE
8
BLACK
6
CONTINUOUS
10
5.57479
20
-2.93743
11
5.57856
21
-2.93628
0
LINE
8
BLACK
6
CONTINUOUS
10
5.57856
20
-2.93628
11
5.58203
21
-2.93443
0
LINE
8
BLACK
6
CONTINUOUS
10
5.58203
20
-2.93443
11
5.58278
21
-2.93381
0
LINE
8
BLACK
6
CONTINUOUS
10
5.58278
20
-2.93381
11
5.58278
21
-2.93381
0
LINE
8
BLACK
6
CONTINUOUS
10
5.58278
20
-2.93381
11
5.58508
21
-2.93193
0
LINE
8
BLACK
6
CONTINUOUS
10
5.58508
20
-2.93193
11
5.58529
21
-2.93167
0
LINE
8
BLACK
6
CONTINUOUS
10
5.58529
20
-2.93167
11
5.58533
21
-2.93162
0
LINE
8
BLACK
6
CONTINUOUS
10
5.58533
20
-2.93162
11
5.58549
21
-2.93146
0
LINE
8
BLACK
6
CONTINUOUS
10
5.58549
20
-2.93146
11
5.58563
21
-2.93129
0
LINE
8
BLACK
6
CONTINUOUS
10
5.58563
20
-2.93129
11
5.58584
21
-2.93112
0
LINE
8
BLACK
6
CONTINUOUS
10
5.58584
20
-2.93112
11
5.58603
21
-2.93094
0
LINE
8
BLACK
6
CONTINUOUS
10
5.58603
20
-2.93094
11
5.58622
21
-2.93082
0
LINE
8
BLACK
6
CONTINUOUS
10
5.58622
20
-2.93082
11
5.58639
21
-2.93068
0
LINE
8
BLACK
6
CONTINUOUS
10
5.58639
20
-2.93068
11
5.58662
21
-2.93055
0
LINE
8
BLACK
6
CONTINUOUS
10
5.58662
20
-2.93055
11
5.58685
21
-2.9304
0
LINE
8
BLACK
6
CONTINUOUS
10
5.58685
20
-2.9304
11
5.58705
21
-2.93032
0
LINE
8
BLACK
6
CONTINUOUS
10
5.58705
20
-2.93032
11
5.58725
21
-2.93022
0
LINE
8
BLACK
6
CONTINUOUS
10
5.58725
20
-2.93022
11
5.58751
21
-2.93014
0
LINE
8
BLACK
6
CONTINUOUS
10
5.58751
20
-2.93014
11
5.58776
21
-2.93004
0
LINE
8
BLACK
6
CONTINUOUS
10
5.58776
20
-2.93004
11
5.58797
21
-2.93
0
LINE
8
BLACK
6
CONTINUOUS
10
5.58797
20
-2.93
11
5.58818
21
-2.92994
0
LINE
8
BLACK
6
CONTINUOUS
10
5.58818
20
-2.92994
11
5.58845
21
-2.92991
0
LINE
8
BLACK
6
CONTINUOUS
10
5.58845
20
-2.92991
11
5.58871
21
-2.92986
0
LINE
8
BLACK
6
CONTINUOUS
10
5.58871
20
-2.92986
11
5.58893
21
-2.92986
0
LINE
8
BLACK
6
CONTINUOUS
10
5.58893
20
-2.92986
11
5.58915
21
-2.92984
0
LINE
8
BLACK
6
CONTINUOUS
10
5.58915
20
-2.92984
11
5.69829
21
-2.92984
0
LINE
8
BLACK
6
CONTINUOUS
10
5.69829
20
-2.92984
11
5.69836
21
-2.92984
0
LINE
8
BLACK
6
CONTINUOUS
10
5.69836
20
-2.92984
11
5.69857
21
-2.92987
0
LINE
8
BLACK
6
CONTINUOUS
10
5.69857
20
-2.92987
11
5.69878
21
-2.92987
0
LINE
8
BLACK
6
CONTINUOUS
10
5.69878
20
-2.92987
11
5.7
21
-2.92999
0
LINE
8
BLACK
6
CONTINUOUS
10
5.7
20
-2.92999
11
5.70122
21
-2.92987
0
LINE
8
BLACK
6
CONTINUOUS
10
5.70122
20
-2.92987
11
5.70123
21
-2.92987
0
LINE
8
BLACK
6
CONTINUOUS
10
5.70123
20
-2.92987
11
5.70585
21
-2.92941
0
LINE
8
BLACK
6
CONTINUOUS
10
5.70585
20
-2.92941
11
5.71148
21
-2.9277
0
LINE
8
BLACK
6
CONTINUOUS
10
5.71148
20
-2.9277
11
5.71666
21
-2.92493
0
LINE
8
BLACK
6
CONTINUOUS
10
5.71666
20
-2.92493
11
5.7212
21
-2.9212
0
LINE
8
BLACK
6
CONTINUOUS
10
5.7212
20
-2.9212
11
5.72198
21
-2.92025
0
LINE
8
BLACK
6
CONTINUOUS
10
5.72198
20
-2.92025
11
5.72203
21
-2.9202
0
LINE
8
BLACK
6
CONTINUOUS
10
5.72203
20
-2.9202
11
5.72218
21
-2.92005
0
LINE
8
BLACK
6
CONTINUOUS
10
5.72218
20
-2.92005
11
5.72231
21
-2.91989
0
LINE
8
BLACK
6
CONTINUOUS
10
5.72231
20
-2.91989
11
5.74288
21
-2.89932
0
LINE
8
BLACK
6
CONTINUOUS
10
5.74288
20
-2.89932
11
5.74289
21
-2.89932
0
LINE
8
BLACK
6
CONTINUOUS
10
5.74289
20
-2.89932
11
5.8109
21
-2.83131
0
LINE
8
BLACK
6
CONTINUOUS
10
5.8109
20
-2.83131
11
5.81091
21
-2.8313
0
LINE
8
BLACK
6
CONTINUOUS
10
5.81091
20
-2.8313
11
5.81091
21
-2.83129
0
LINE
8
BLACK
6
CONTINUOUS
10
5.81091
20
-2.83129
11
5.81091
21
-2.83129
0
LINE
8
BLACK
6
CONTINUOUS
10
5.81091
20
-2.83129
11
5.81095
21
-2.83126
0
LINE
8
BLACK
6
CONTINUOUS
10
5.81095
20
-2.83126
11
5.81131
21
-2.83097
0
LINE
8
BLACK
6
CONTINUOUS
10
5.81131
20
-2.83097
11
5.81167
21
-2.83068
0
LINE
8
BLACK
6
CONTINUOUS
10
5.81167
20
-2.83068
11
5.81169
21
-2.83067
0
LINE
8
BLACK
6
CONTINUOUS
10
5.81169
20
-2.83067
11
5.81171
21
-2.83065
0
LINE
8
BLACK
6
CONTINUOUS
10
5.81171
20
-2.83065
11
5.81212
21
-2.83044
0
LINE
8
BLACK
6
CONTINUOUS
10
5.81212
20
-2.83044
11
5.81253
21
-2.83022
0
LINE
8
BLACK
6
CONTINUOUS
10
5.81253
20
-2.83022
11
5.81255
21
-2.83021
0
LINE
8
BLACK
6
CONTINUOUS
10
5.81255
20
-2.83021
11
5.81258
21
-2.8302
0
LINE
8
BLACK
6
CONTINUOUS
10
5.81258
20
-2.8302
11
5.81302
21
-2.83007
0
LINE
8
BLACK
6
CONTINUOUS
10
5.81302
20
-2.83007
11
5.81346
21
-2.82994
0
LINE
8
BLACK
6
CONTINUOUS
10
5.81346
20
-2.82994
11
5.81349
21
-2.82994
0
LINE
8
BLACK
6
CONTINUOUS
10
5.81349
20
-2.82994
11
5.81351
21
-2.82993
0
LINE
8
BLACK
6
CONTINUOUS
10
5.81351
20
-2.82993
11
5.81397
21
-2.82989
0
LINE
8
BLACK
6
CONTINUOUS
10
5.81397
20
-2.82989
11
5.81443
21
-2.82984
0
LINE
8
BLACK
6
CONTINUOUS
10
5.81443
20
-2.82984
11
5.95773
21
-2.82984
0
LINE
8
BLACK
6
CONTINUOUS
10
5.95773
20
-2.82984
11
5.95775
21
-2.82984
0
LINE
8
BLACK
6
CONTINUOUS
10
5.95775
20
-2.82984
11
5.95775
21
-2.82984
0
LINE
8
BLACK
6
CONTINUOUS
10
5.95775
20
-2.82984
11
5.95775
21
-2.82984
0
LINE
8
BLACK
6
CONTINUOUS
10
5.95775
20
-2.82984
11
5.9578
21
-2.82984
0
LINE
8
BLACK
6
CONTINUOUS
10
5.9578
20
-2.82984
11
5.95826
21
-2.82989
0
LINE
8
BLACK
6
CONTINUOUS
10
5.95826
20
-2.82989
11
5.95872
21
-2.82994
0
LINE
8
BLACK
6
CONTINUOUS
10
5.95872
20
-2.82994
11
5.95874
21
-2.82995
0
LINE
8
BLACK
6
CONTINUOUS
10
5.95874
20
-2.82995
11
5.95877
21
-2.82995
0
LINE
8
BLACK
6
CONTINUOUS
10
5.95877
20
-2.82995
11
5.95921
21
-2.83009
0
LINE
8
BLACK
6
CONTINUOUS
10
5.95921
20
-2.83009
11
5.95965
21
-2.83023
0
LINE
8
BLACK
6
CONTINUOUS
10
5.95965
20
-2.83023
11
5.95967
21
-2.83024
0
LINE
8
BLACK
6
CONTINUOUS
10
5.95967
20
-2.83024
11
5.9597
21
-2.83025
0
LINE
8
BLACK
6
CONTINUOUS
10
5.9597
20
-2.83025
11
5.9601
21
-2.83047
0
LINE
8
BLACK
6
CONTINUOUS
10
5.9601
20
-2.83047
11
5.96051
21
-2.83069
0
LINE
8
BLACK
6
CONTINUOUS
10
5.96051
20
-2.83069
11
5.96053
21
-2.8307
0
LINE
8
BLACK
6
CONTINUOUS
10
5.96053
20
-2.8307
11
5.96055
21
-2.83072
0
LINE
8
BLACK
6
CONTINUOUS
10
5.96055
20
-2.83072
11
5.96091
21
-2.83101
0
LINE
8
BLACK
6
CONTINUOUS
10
5.96091
20
-2.83101
11
5.96126
21
-2.83131
0
LINE
8
BLACK
6
CONTINUOUS
10
5.96126
20
-2.83131
11
5.96843
21
-2.83847
0
LINE
8
BLACK
6
CONTINUOUS
10
5.96843
20
-2.83847
11
5.97654
21
-2.84389
0
LINE
8
BLACK
6
CONTINUOUS
10
5.97654
20
-2.84389
11
5.98
21
-2.84532
0
LINE
8
BLACK
6
CONTINUOUS
10
5.98
20
-2.84532
11
5.98006
21
-2.84535
0
LINE
8
BLACK
6
CONTINUOUS
10
5.98006
20
-2.84535
11
5.98015
21
-2.8454
0
LINE
8
BLACK
6
CONTINUOUS
10
5.98015
20
-2.8454
11
5.98025
21
-2.84544
0
LINE
8
BLACK
6
CONTINUOUS
10
5.98025
20
-2.84544
11
5.98058
21
-2.84564
0
LINE
8
BLACK
6
CONTINUOUS
10
5.98058
20
-2.84564
11
5.98091
21
-2.84582
0
LINE
8
BLACK
6
CONTINUOUS
10
5.98091
20
-2.84582
11
5.981
21
-2.84589
0
LINE
8
BLACK
6
CONTINUOUS
10
5.981
20
-2.84589
11
5.98109
21
-2.84594
0
LINE
8
BLACK
6
CONTINUOUS
10
5.98109
20
-2.84594
11
5.98137
21
-2.8462
0
LINE
8
BLACK
6
CONTINUOUS
10
5.98137
20
-2.8462
11
5.98166
21
-2.84645
0
LINE
8
BLACK
6
CONTINUOUS
10
5.98166
20
-2.84645
11
5.98173
21
-2.84653
0
LINE
8
BLACK
6
CONTINUOUS
10
5.98173
20
-2.84653
11
5.98181
21
-2.8466
0
LINE
8
BLACK
6
CONTINUOUS
10
5.98181
20
-2.8466
11
5.98203
21
-2.84691
0
LINE
8
BLACK
6
CONTINUOUS
10
5.98203
20
-2.84691
11
5.98227
21
-2.84721
0
LINE
8
BLACK
6
CONTINUOUS
10
5.98227
20
-2.84721
11
5.98232
21
-2.84731
0
LINE
8
BLACK
6
CONTINUOUS
10
5.98232
20
-2.84731
11
5.98238
21
-2.84739
0
LINE
8
BLACK
6
CONTINUOUS
10
5.98238
20
-2.84739
11
5.98254
21
-2.84774
0
LINE
8
BLACK
6
CONTINUOUS
10
5.98254
20
-2.84774
11
5.98272
21
-2.84808
0
LINE
8
BLACK
6
CONTINUOUS
10
5.98272
20
-2.84808
11
5.98275
21
-2.84818
0
LINE
8
BLACK
6
CONTINUOUS
10
5.98275
20
-2.84818
11
5.9828
21
-2.84828
0
LINE
8
BLACK
6
CONTINUOUS
10
5.9828
20
-2.84828
11
5.98289
21
-2.84865
0
LINE
8
BLACK
6
CONTINUOUS
10
5.98289
20
-2.84865
11
5.98299
21
-2.84901
0
LINE
8
BLACK
6
CONTINUOUS
10
5.98299
20
-2.84901
11
5.983
21
-2.84912
0
LINE
8
BLACK
6
CONTINUOUS
10
5.983
20
-2.84912
11
5.98303
21
-2.84922
0
LINE
8
BLACK
6
CONTINUOUS
10
5.98303
20
-2.84922
11
5.98305
21
-2.8496
0
LINE
8
BLACK
6
CONTINUOUS
10
5.98305
20
-2.8496
11
5.98308
21
-2.84998
0
LINE
8
BLACK
6
CONTINUOUS
10
5.98308
20
-2.84998
11
5.98307
21
-2.85009
0
LINE
8
BLACK
6
CONTINUOUS
10
5.98307
20
-2.85009
11
5.98308
21
-2.8502
0
LINE
8
BLACK
6
CONTINUOUS
10
5.98308
20
-2.8502
11
5.98302
21
-2.85058
0
LINE
8
BLACK
6
CONTINUOUS
10
5.98302
20
-2.85058
11
5.98298
21
-2.85096
0
LINE
8
BLACK
6
CONTINUOUS
10
5.98298
20
-2.85096
11
5.98295
21
-2.85106
0
LINE
8
BLACK
6
CONTINUOUS
10
5.98295
20
-2.85106
11
5.98293
21
-2.85116
0
LINE
8
BLACK
6
CONTINUOUS
10
5.98293
20
-2.85116
11
5.9828
21
-2.85152
0
LINE
8
BLACK
6
CONTINUOUS
10
5.9828
20
-2.85152
11
5.98269
21
-2.85189
0
LINE
8
BLACK
6
CONTINUOUS
10
5.98269
20
-2.85189
11
5.98264
21
-2.85198
0
LINE
8
BLACK
6
CONTINUOUS
10
5.98264
20
-2.85198
11
5.9826
21
-2.85208
0
LINE
8
BLACK
6
CONTINUOUS
10
5.9826
20
-2.85208
11
5.9824
21
-2.85241
0
LINE
8
BLACK
6
CONTINUOUS
10
5.9824
20
-2.85241
11
5.98222
21
-2.85274
0
LINE
8
BLACK
6
CONTINUOUS
10
5.98222
20
-2.85274
11
5.98215
21
-2.85283
0
LINE
8
BLACK
6
CONTINUOUS
10
5.98215
20
-2.85283
11
5.9821
21
-2.85292
0
LINE
8
BLACK
6
CONTINUOUS
10
5.9821
20
-2.85292
11
5.98184
21
-2.8532
0
LINE
8
BLACK
6
CONTINUOUS
10
5.98184
20
-2.8532
11
5.9816
21
-2.8535
0
LINE
8
BLACK
6
CONTINUOUS
10
5.9816
20
-2.8535
11
5.98152
21
-2.85356
0
LINE
8
BLACK
6
CONTINUOUS
10
5.98152
20
-2.85356
11
5.98144
21
-2.85364
0
LINE
8
BLACK
6
CONTINUOUS
10
5.98144
20
-2.85364
11
5.98114
21
-2.85387
0
LINE
8
BLACK
6
CONTINUOUS
10
5.98114
20
-2.85387
11
5.98084
21
-2.85411
0
LINE
8
BLACK
6
CONTINUOUS
10
5.98084
20
-2.85411
11
5.98075
21
-2.85416
0
LINE
8
BLACK
6
CONTINUOUS
10
5.98075
20
-2.85416
11
5.98066
21
-2.85422
0
LINE
8
BLACK
6
CONTINUOUS
10
5.98066
20
-2.85422
11
5.98032
21
-2.85439
0
LINE
8
BLACK
6
CONTINUOUS
10
5.98032
20
-2.85439
11
5.97998
21
-2.85457
0
LINE
8
BLACK
6
CONTINUOUS
10
5.97998
20
-2.85457
11
5.97988
21
-2.8546
0
LINE
8
BLACK
6
CONTINUOUS
10
5.97988
20
-2.8546
11
5.97978
21
-2.85464
0
LINE
8
BLACK
6
CONTINUOUS
10
5.97978
20
-2.85464
11
5.97846
21
-2.85512
0
LINE
8
BLACK
6
CONTINUOUS
10
5.97846
20
-2.85512
11
5.97623
21
-2.85632
0
LINE
8
BLACK
6
CONTINUOUS
10
5.97623
20
-2.85632
11
5.97498
21
-2.86084
0
LINE
8
BLACK
6
CONTINUOUS
10
5.97498
20
-2.86084
11
5.9874
21
-2.87326
0
LINE
8
BLACK
6
CONTINUOUS
10
5.9874
20
-2.87326
11
5.99139
21
-2.87161
0
LINE
8
BLACK
6
CONTINUOUS
10
5.99139
20
-2.87161
11
5.99709
21
-2.87047
0
LINE
8
BLACK
6
CONTINUOUS
10
5.99709
20
-2.87047
11
6.00291
21
-2.87047
0
LINE
8
BLACK
6
CONTINUOUS
10
6.00291
20
-2.87047
11
6.00861
21
-2.87161
0
LINE
8
BLACK
6
CONTINUOUS
10
6.00861
20
-2.87161
11
6.0126
21
-2.87326
0
LINE
8
BLACK
6
CONTINUOUS
10
6.0126
20
-2.87326
11
6.02502
21
-2.86084
0
LINE
8
BLACK
6
CONTINUOUS
10
6.02502
20
-2.86084
11
6.02381
21
-2.85647
0
LINE
8
BLACK
6
CONTINUOUS
10
6.02381
20
-2.85647
11
6.01967
21
-2.85452
0
LINE
8
BLACK
6
CONTINUOUS
10
6.01967
20
-2.85452
11
6.01961
21
-2.85449
0
LINE
8
BLACK
6
CONTINUOUS
10
6.01961
20
-2.85449
11
6.01929
21
-2.8543
0
LINE
8
BLACK
6
CONTINUOUS
10
6.01929
20
-2.8543
11
6.01897
21
-2.85412
0
LINE
8
BLACK
6
CONTINUOUS
10
6.01897
20
-2.85412
11
6.01888
21
-2.85404
0
LINE
8
BLACK
6
CONTINUOUS
10
6.01888
20
-2.85404
11
6.01877
21
-2.85398
0
LINE
8
BLACK
6
CONTINUOUS
10
6.01877
20
-2.85398
11
6.01851
21
-2.85373
0
LINE
8
BLACK
6
CONTINUOUS
10
6.01851
20
-2.85373
11
6.01823
21
-2.8535
0
LINE
8
BLACK
6
CONTINUOUS
10
6.01823
20
-2.8535
11
6.01815
21
-2.8534
0
LINE
8
BLACK
6
CONTINUOUS
10
6.01815
20
-2.8534
11
6.01806
21
-2.85332
0
LINE
8
BLACK
6
CONTINUOUS
10
6.01806
20
-2.85332
11
6.01784
21
-2.85302
0
LINE
8
BLACK
6
CONTINUOUS
10
6.01784
20
-2.85302
11
6.01761
21
-2.85274
0
LINE
8
BLACK
6
CONTINUOUS
10
6.01761
20
-2.85274
11
6.01756
21
-2.85263
0
LINE
8
BLACK
6
CONTINUOUS
10
6.01756
20
-2.85263
11
6.01748
21
-2.85253
0
LINE
8
BLACK
6
CONTINUOUS
10
6.01748
20
-2.85253
11
6.01733
21
-2.8522
0
LINE
8
BLACK
6
CONTINUOUS
10
6.01733
20
-2.8522
11
6.01716
21
-2.85187
0
LINE
8
BLACK
6
CONTINUOUS
10
6.01716
20
-2.85187
11
6.01712
21
-2.85176
0
LINE
8
BLACK
6
CONTINUOUS
10
6.01712
20
-2.85176
11
6.01707
21
-2.85164
0
LINE
8
BLACK
6
CONTINUOUS
10
6.01707
20
-2.85164
11
6.01699
21
-2.85129
0
LINE
8
BLACK
6
CONTINUOUS
10
6.01699
20
-2.85129
11
6.01688
21
-2.85094
0
LINE
8
BLACK
6
CONTINUOUS
10
6.01688
20
-2.85094
11
6.01687
21
-2.85082
0
LINE
8
BLACK
6
CONTINUOUS
10
6.01687
20
-2.85082
11
6.01684
21
-2.85069
0
LINE
8
BLACK
6
CONTINUOUS
10
6.01684
20
-2.85069
11
6.01683
21
-2.85033
0
LINE
8
BLACK
6
CONTINUOUS
10
6.01683
20
-2.85033
11
6.01679
21
-2.84997
0
LINE
8
BLACK
6
CONTINUOUS
10
6.01679
20
-2.84997
11
6.01681
21
-2.84984
0
LINE
8
BLACK
6
CONTINUOUS
10
6.01681
20
-2.84984
11
6.0168
21
-2.84972
0
LINE
8
BLACK
6
CONTINUOUS
10
6.0168
20
-2.84972
11
6.01686
21
-2.84936
0
LINE
8
BLACK
6
CONTINUOUS
10
6.01686
20
-2.84936
11
6.01689
21
-2.849
0
LINE
8
BLACK
6
CONTINUOUS
10
6.01689
20
-2.849
11
6.01693
21
-2.84888
0
LINE
8
BLACK
6
CONTINUOUS
10
6.01693
20
-2.84888
11
6.01695
21
-2.84876
0
LINE
8
BLACK
6
CONTINUOUS
10
6.01695
20
-2.84876
11
6.01707
21
-2.84841
0
LINE
8
BLACK
6
CONTINUOUS
10
6.01707
20
-2.84841
11
6.01718
21
-2.84806
0
LINE
8
BLACK
6
CONTINUOUS
10
6.01718
20
-2.84806
11
6.01724
21
-2.84795
0
LINE
8
BLACK
6
CONTINUOUS
10
6.01724
20
-2.84795
11
6.01728
21
-2.84784
0
LINE
8
BLACK
6
CONTINUOUS
10
6.01728
20
-2.84784
11
6.01747
21
-2.84753
0
LINE
8
BLACK
6
CONTINUOUS
10
6.01747
20
-2.84753
11
6.01764
21
-2.8472
0
LINE
8
BLACK
6
CONTINUOUS
10
6.01764
20
-2.8472
11
6.01772
21
-2.84711
0
LINE
8
BLACK
6
CONTINUOUS
10
6.01772
20
-2.84711
11
6.01779
21
-2.847
0
LINE
8
BLACK
6
CONTINUOUS
10
6.01779
20
-2.847
11
6.01803
21
-2.84673
0
LINE
8
BLACK
6
CONTINUOUS
10
6.01803
20
-2.84673
11
6.01826
21
-2.84645
0
LINE
8
BLACK
6
CONTINUOUS
10
6.01826
20
-2.84645
11
6.01836
21
-2.84637
0
LINE
8
BLACK
6
CONTINUOUS
10
6.01836
20
-2.84637
11
6.01844
21
-2.84628
0
LINE
8
BLACK
6
CONTINUOUS
10
6.01844
20
-2.84628
11
6.01874
21
-2.84606
0
LINE
8
BLACK
6
CONTINUOUS
10
6.01874
20
-2.84606
11
6.01902
21
-2.84583
0
LINE
8
BLACK
6
CONTINUOUS
10
6.01902
20
-2.84583
11
6.01913
21
-2.84578
0
LINE
8
BLACK
6
CONTINUOUS
10
6.01913
20
-2.84578
11
6.01923
21
-2.8457
0
LINE
8
BLACK
6
CONTINUOUS
10
6.01923
20
-2.8457
11
6.01956
21
-2.84555
0
LINE
8
BLACK
6
CONTINUOUS
10
6.01956
20
-2.84555
11
6.01988
21
-2.84537
0
LINE
8
BLACK
6
CONTINUOUS
10
6.01988
20
-2.84537
11
6.02346
21
-2.84389
0
LINE
8
BLACK
6
CONTINUOUS
10
6.02346
20
-2.84389
11
6.03157
21
-2.83847
0
LINE
8
BLACK
6
CONTINUOUS
10
6.03157
20
-2.83847
11
6.03847
21
-2.83157
0
LINE
8
BLACK
6
CONTINUOUS
10
6.03847
20
-2.83157
11
6.04389
21
-2.82346
0
LINE
8
BLACK
6
CONTINUOUS
10
6.04389
20
-2.82346
11
6.04762
21
-2.81445
0
LINE
8
BLACK
6
CONTINUOUS
10
6.04762
20
-2.81445
11
6.04953
21
-2.80488
0
LINE
8
BLACK
6
CONTINUOUS
10
6.04953
20
-2.80488
11
6.04953
21
-2.79512
0
LINE
8
BLACK
6
CONTINUOUS
10
6.04953
20
-2.79512
11
6.04762
21
-2.78555
0
LINE
8
BLACK
6
CONTINUOUS
10
6.04762
20
-2.78555
11
6.04389
21
-2.77654
0
LINE
8
BLACK
6
CONTINUOUS
10
6.04389
20
-2.77654
11
6.03847
21
-2.76843
0
LINE
8
BLACK
6
CONTINUOUS
10
6.03847
20
-2.76843
11
6.03157
21
-2.76153
0
LINE
8
BLACK
6
CONTINUOUS
10
6.03157
20
-2.76153
11
6.02346
21
-2.75611
0
LINE
8
BLACK
6
CONTINUOUS
10
6.02346
20
-2.75611
11
6.01445
21
-2.75238
0
LINE
8
BLACK
6
CONTINUOUS
10
6.01445
20
-2.75238
11
6.00488
21
-2.75047
0
LINE
8
BLACK
6
CONTINUOUS
10
6.00488
20
-2.75047
11
5.99512
21
-2.75047
0
LINE
8
BLACK
6
CONTINUOUS
10
6.00861
20
-2.92839
11
6.00291
21
-2.92953
0
LINE
8
BLACK
6
CONTINUOUS
10
6.00291
20
-2.92953
11
5.99709
21
-2.92953
0
LINE
8
BLACK
6
CONTINUOUS
10
5.99709
20
-2.92953
11
5.99139
21
-2.92839
0
LINE
8
BLACK
6
CONTINUOUS
10
5.99139
20
-2.92839
11
5.9874
21
-2.92674
0
LINE
8
BLACK
6
CONTINUOUS
10
5.9874
20
-2.92674
11
5.97498
21
-2.93916
0
LINE
8
BLACK
6
CONTINUOUS
10
5.97498
20
-2.93916
11
5.97619
21
-2.94353
0
LINE
8
BLACK
6
CONTINUOUS
10
5.97619
20
-2.94353
11
5.98338
21
-2.94691
0
LINE
8
BLACK
6
CONTINUOUS
10
5.98338
20
-2.94691
11
5.99285
21
-2.94925
0
LINE
8
BLACK
6
CONTINUOUS
10
5.99285
20
-2.94925
11
6.00259
21
-2.9497
0
LINE
8
BLACK
6
CONTINUOUS
10
6.00259
20
-2.9497
11
6.01224
21
-2.94824
0
LINE
8
BLACK
6
CONTINUOUS
10
6.01224
20
-2.94824
11
6.02154
21
-2.94488
0
LINE
8
BLACK
6
CONTINUOUS
10
6.02154
20
-2.94488
11
6.02377
21
-2.94368
0
LINE
8
BLACK
6
CONTINUOUS
10
6.02377
20
-2.94368
11
6.02502
21
-2.93916
0
LINE
8
BLACK
6
CONTINUOUS
10
6.02502
20
-2.93916
11
6.0126
21
-2.92674
0
LINE
8
BLACK
6
CONTINUOUS
10
6.0126
20
-2.92674
11
6.00861
21
-2.92839
0
LINE
8
BLACK
6
CONTINUOUS
10
6.02674
20
-2.8874
11
6.02839
21
-2.89139
0
LINE
8
BLACK
6
CONTINUOUS
10
6.02839
20
-2.89139
11
6.02953
21
-2.89709
0
LINE
8
BLACK
6
CONTINUOUS
10
6.02953
20
-2.89709
11
6.02953
21
-2.90291
0
LINE
8
BLACK
6
CONTINUOUS
10
6.02953
20
-2.90291
11
6.02839
21
-2.90861
0
LINE
8
BLACK
6
CONTINUOUS
10
6.02839
20
-2.90861
11
6.02674
21
-2.9126
0
LINE
8
BLACK
6
CONTINUOUS
10
6.02674
20
-2.9126
11
6.03916
21
-2.92502
0
LINE
8
BLACK
6
CONTINUOUS
10
6.03916
20
-2.92502
11
6.04353
21
-2.92381
0
LINE
8
BLACK
6
CONTINUOUS
10
6.04353
20
-2.92381
11
6.04691
21
-2.91662
0
LINE
8
BLACK
6
CONTINUOUS
10
6.04691
20
-2.91662
11
6.04925
21
-2.90715
0
LINE
8
BLACK
6
CONTINUOUS
10
6.04925
20
-2.90715
11
6.0497
21
-2.89741
0
LINE
8
BLACK
6
CONTINUOUS
10
6.0497
20
-2.89741
11
6.04824
21
-2.88776
0
LINE
8
BLACK
6
CONTINUOUS
10
6.04824
20
-2.88776
11
6.04488
21
-2.87846
0
LINE
8
BLACK
6
CONTINUOUS
10
6.04488
20
-2.87846
11
6.04368
21
-2.87623
0
LINE
8
BLACK
6
CONTINUOUS
10
6.04368
20
-2.87623
11
6.03916
21
-2.87498
0
LINE
8
BLACK
6
CONTINUOUS
10
6.03916
20
-2.87498
11
6.02674
21
-2.8874
0
LINE
8
BLACK
6
CONTINUOUS
10
5.95647
20
-2.87619
11
5.95309
21
-2.88338
0
LINE
8
BLACK
6
CONTINUOUS
10
5.95309
20
-2.88338
11
5.95075
21
-2.89285
0
LINE
8
BLACK
6
CONTINUOUS
10
5.95075
20
-2.89285
11
5.9503
21
-2.90259
0
LINE
8
BLACK
6
CONTINUOUS
10
5.9503
20
-2.90259
11
5.95176
21
-2.91224
0
LINE
8
BLACK
6
CONTINUOUS
10
5.95176
20
-2.91224
11
5.95512
21
-2.92154
0
LINE
8
BLACK
6
CONTINUOUS
10
5.95512
20
-2.92154
11
5.95632
21
-2.92377
0
LINE
8
BLACK
6
CONTINUOUS
10
5.95632
20
-2.92377
11
5.96084
21
-2.92502
0
LINE
8
BLACK
6
CONTINUOUS
10
5.96084
20
-2.92502
11
5.97326
21
-2.9126
0
LINE
8
BLACK
6
CONTINUOUS
10
5.97326
20
-2.9126
11
5.97161
21
-2.90861
0
LINE
8
BLACK
6
CONTINUOUS
10
5.97161
20
-2.90861
11
5.97047
21
-2.90291
0
LINE
8
BLACK
6
CONTINUOUS
10
5.97047
20
-2.90291
11
5.97047
21
-2.89709
0
LINE
8
BLACK
6
CONTINUOUS
10
5.97047
20
-2.89709
11
5.97161
21
-2.89139
0
LINE
8
BLACK
6
CONTINUOUS
10
5.97161
20
-2.89139
11
5.97326
21
-2.8874
0
LINE
8
BLACK
6
CONTINUOUS
10
5.97326
20
-2.8874
11
5.96084
21
-2.87498
0
LINE
8
BLACK
6
CONTINUOUS
10
5.96084
20
-2.87498
11
5.95647
21
-2.87619
0
LINE
8
BLACK
6
CONTINUOUS
10
5.51181
20
-2.91772
11
5.50984
21
-2.91772
0
LINE
8
BLACK
6
CONTINUOUS
10
5.50984
20
-2.91772
11
5.50984
21
-3.02913
0
LINE
8
BLACK
6
CONTINUOUS
10
5.50984
20
-3.02913
11
5.51772
21
-3.02913
0
LINE
8
BLACK
6
CONTINUOUS
10
5.51772
20
-3.02913
11
5.51772
21
-3.05276
0
LINE
8
BLACK
6
CONTINUOUS
10
5.51772
20
-3.05276
11
5.48228
21
-3.05276
0
LINE
8
BLACK
6
CONTINUOUS
10
5.48228
20
-3.05276
11
5.48228
21
-3.02913
0
LINE
8
BLACK
6
CONTINUOUS
10
5.48228
20
-3.02913
11
5.49016
21
-3.02913
0
LINE
8
BLACK
6
CONTINUOUS
10
5.49016
20
-3.02913
11
5.49016
21
-2.91772
0
LINE
8
BLACK
6
CONTINUOUS
10
5.49016
20
-2.91772
11
5.48819
21
-2.91772
0
LINE
8
BLACK
6
CONTINUOUS
10
5.48819
20
-2.91772
11
5.48819
21
-2.88228
0
LINE
8
BLACK
6
CONTINUOUS
10
5.48819
20
-2.88228
11
5.51181
21
-2.88228
0
LINE
8
BLACK
6
CONTINUOUS
10
5.51181
20
-2.88228
11
5.51181
21
-2.91772
0
LINE
8
BLACK
6
CONTINUOUS
10
6.00861
20
-2.77161
11
6.01399
21
-2.77383
0
LINE
8
BLACK
6
CONTINUOUS
10
6.01399
20
-2.77383
11
6.01882
21
-2.77706
0
LINE
8
BLACK
6
CONTINUOUS
10
6.01882
20
-2.77706
11
6.02294
21
-2.78118
0
LINE
8
BLACK
6
CONTINUOUS
10
6.02294
20
-2.78118
11
6.02617
21
-2.78601
0
LINE
8
BLACK
6
CONTINUOUS
10
6.02617
20
-2.78601
11
6.02839
21
-2.79139
0
LINE
8
BLACK
6
CONTINUOUS
10
6.02839
20
-2.79139
11
6.02953
21
-2.79709
0
LINE
8
BLACK
6
CONTINUOUS
10
6.02953
20
-2.79709
11
6.02953
21
-2.80291
0
LINE
8
BLACK
6
CONTINUOUS
10
6.02953
20
-2.80291
11
6.02839
21
-2.80861
0
LINE
8
BLACK
6
CONTINUOUS
10
6.02839
20
-2.80861
11
6.02617
21
-2.81399
0
LINE
8
BLACK
6
CONTINUOUS
10
6.02617
20
-2.81399
11
6.02294
21
-2.81882
0
LINE
8
BLACK
6
CONTINUOUS
10
6.02294
20
-2.81882
11
6.01882
21
-2.82294
0
LINE
8
BLACK
6
CONTINUOUS
10
6.01882
20
-2.82294
11
6.01399
21
-2.82617
0
LINE
8
BLACK
6
CONTINUOUS
10
6.01399
20
-2.82617
11
6.00861
21
-2.82839
0
LINE
8
BLACK
6
CONTINUOUS
10
6.00861
20
-2.82839
11
6.00291
21
-2.82953
0
LINE
8
BLACK
6
CONTINUOUS
10
6.00291
20
-2.82953
11
5.99709
21
-2.82953
0
LINE
8
BLACK
6
CONTINUOUS
10
5.99709
20
-2.82953
11
5.99139
21
-2.82839
0
LINE
8
BLACK
6
CONTINUOUS
10
5.99139
20
-2.82839
11
5.98601
21
-2.82617
0
LINE
8
BLACK
6
CONTINUOUS
10
5.98601
20
-2.82617
11
5.98118
21
-2.82294
0
LINE
8
BLACK
6
CONTINUOUS
10
5.98118
20
-2.82294
11
5.97706
21
-2.81882
0
LINE
8
BLACK
6
CONTINUOUS
10
5.97706
20
-2.81882
11
5.97383
21
-2.81399
0
LINE
8
BLACK
6
CONTINUOUS
10
5.97383
20
-2.81399
11
5.97212
21
-2.80984
0
LINE
8
BLACK
6
CONTINUOUS
10
5.97212
20
-2.80984
11
5.80408
21
-2.80984
0
LINE
8
BLACK
6
CONTINUOUS
10
5.80408
20
-2.80984
11
5.7073
21
-2.90662
0
LINE
8
BLACK
6
CONTINUOUS
10
5.7073
20
-2.90662
11
5.70699
21
-2.90699
0
LINE
8
BLACK
6
CONTINUOUS
10
5.70699
20
-2.90699
11
5.70549
21
-2.90822
0
LINE
8
BLACK
6
CONTINUOUS
10
5.70549
20
-2.90822
11
5.70378
21
-2.90914
0
LINE
8
BLACK
6
CONTINUOUS
10
5.70378
20
-2.90914
11
5.70273
21
-2.90946
0
LINE
8
BLACK
6
CONTINUOUS
10
5.70273
20
-2.90946
11
5.70193
21
-2.9097
0
LINE
8
BLACK
6
CONTINUOUS
10
5.70193
20
-2.9097
11
5.7
21
-2.90989
0
LINE
8
BLACK
6
CONTINUOUS
10
5.7
20
-2.90989
11
5.69952
21
-2.90984
0
LINE
8
BLACK
6
CONTINUOUS
10
5.69952
20
-2.90984
11
5.57087
21
-2.90984
0
LINE
8
BLACK
6
CONTINUOUS
10
5.57087
20
-2.90984
11
5.57087
21
-2.91772
0
LINE
8
BLACK
6
CONTINUOUS
10
5.57087
20
-2.91772
11
5.54724
21
-2.91772
0
LINE
8
BLACK
6
CONTINUOUS
10
5.54724
20
-2.91772
11
5.54724
21
-2.88228
0
LINE
8
BLACK
6
CONTINUOUS
10
5.54724
20
-2.88228
11
5.57087
21
-2.88228
0
LINE
8
BLACK
6
CONTINUOUS
10
5.57087
20
-2.88228
11
5.57087
21
-2.89016
0
LINE
8
BLACK
6
CONTINUOUS
10
5.57087
20
-2.89016
11
5.69592
21
-2.89016
0
LINE
8
BLACK
6
CONTINUOUS
10
5.69592
20
-2.89016
11
5.7927
21
-2.79338
0
LINE
8
BLACK
6
CONTINUOUS
10
5.7927
20
-2.79338
11
5.79301
21
-2.79301
0
LINE
8
BLACK
6
CONTINUOUS
10
5.79301
20
-2.79301
11
5.79451
21
-2.79178
0
LINE
8
BLACK
6
CONTINUOUS
10
5.79451
20
-2.79178
11
5.79622
21
-2.79086
0
LINE
8
BLACK
6
CONTINUOUS
10
5.79622
20
-2.79086
11
5.79807
21
-2.7903
0
LINE
8
BLACK
6
CONTINUOUS
10
5.79807
20
-2.7903
11
5.79952
21
-2.79016
0
LINE
8
BLACK
6
CONTINUOUS
10
5.79952
20
-2.79016
11
5.79952
21
-2.79016
0
LINE
8
BLACK
6
CONTINUOUS
10
5.79952
20
-2.79016
11
5.8
21
-2.79011
0
LINE
8
BLACK
6
CONTINUOUS
10
5.8
20
-2.79011
11
5.80048
21
-2.79016
0
LINE
8
BLACK
6
CONTINUOUS
10
5.80048
20
-2.79016
11
5.97212
21
-2.79016
0
LINE
8
BLACK
6
CONTINUOUS
10
5.97212
20
-2.79016
11
5.97383
21
-2.78601
0
LINE
8
BLACK
6
CONTINUOUS
10
5.97383
20
-2.78601
11
5.97706
21
-2.78118
0
LINE
8
BLACK
6
CONTINUOUS
10
5.97706
20
-2.78118
11
5.98118
21
-2.77706
0
LINE
8
BLACK
6
CONTINUOUS
10
5.98118
20
-2.77706
11
5.98601
21
-2.77383
0
LINE
8
BLACK
6
CONTINUOUS
10
5.98601
20
-2.77383
11
5.99139
21
-2.77161
0
LINE
8
BLACK
6
CONTINUOUS
10
5.99139
20
-2.77161
11
5.99709
21
-2.77047
0
LINE
8
BLACK
6
CONTINUOUS
10
5.99709
20
-2.77047
11
6.00291
21
-2.77047
0
LINE
8
BLACK
6
CONTINUOUS
10
6.00291
20
-2.77047
11
6.00861
21
-2.77161
  0
ENDSEC
  0
EOF
