  0
SECTION
  2
HEADER
  9
$ANGBASE
  50
0.0
  9
$ANGDIR
  70
1
  9
$MEASUREMENT
  70
0
  0
ENDSEC
  0
SECTION
  2
TABLES
  0
TABLE
  2
LTYPE
  70
4
  0
LTYPE
  5
40F
  2
CONTINUOUS
  70
0
  3
Solid line
  72
65
  73
0
  40
0.0
  0
LTYPE
  5
410
  2
DASHDOT
 70
0
  3
Dash Dot ____ _ ____ _
 72
65
 73
4
 40
2.0
 49
1.25
 49
-0.25
 49
0.25
 49
-0.25
  0
LTYPE
  5
411
  2
DASHED
 70
0
  3
Dashed __ __ __ __ __
 72
65
 73
2
 40
0.75
 49
0.5
 49
-0.25
  0
LTYPE
  5
43B
  2
DOTTED
 70
0
  3
Dotted .  .  .  .
 72
65
 73
2
 40
0.2
 49
0.0
 49
-0.2
  0
ENDTAB
  0
TABLE
  2
STYLE
  70
4
  0
STYLE
  2
KICAD
  70
0
  40
0
  41
1
  42
1
  50
0
  71
0
  3
isocp.shx
  0
STYLE
  2
KICADB
  70
0
  40
0
  41
1
  42
1
  50
0
  71
0
  3
isocp.shx
  0
STYLE
  2
KICADI
  70
0
  40
0
  41
1
  42
1
  50
15
  71
0
  3
isocp.shx
  0
STYLE
  2
KICADBI
  70
0
  40
0
  41
1
  42
1
  50
15
  71
0
  3
isocp.shx
  0
ENDTAB
  0
TABLE
  2
LAYER
  70
1
  0
LAYER
  2
BLACK
  70
0
  62
7
  6
CONTINUOUS
  0
ENDTAB
  0
ENDSEC
  0
SECTION
  2
ENTITIES
0
LINE
8
BLACK
6
CONTINUOUS
10
6.15014
20
-2.64705
11
6.15058
21
-2.64709
0
LINE
8
BLACK
6
CONTINUOUS
10
6.15058
20
-2.64709
11
6.15114
21
-2.64726
0
LINE
8
BLACK
6
CONTINUOUS
10
6.15114
20
-2.64726
11
6.15165
21
-2.64753
0
LINE
8
BLACK
6
CONTINUOUS
10
6.15165
20
-2.64753
11
6.1521
21
-2.6479
0
LINE
8
BLACK
6
CONTINUOUS
10
6.1521
20
-2.6479
11
6.15247
21
-2.64835
0
LINE
8
BLACK
6
CONTINUOUS
10
6.15247
20
-2.64835
11
6.15274
21
-2.64886
0
LINE
8
BLACK
6
CONTINUOUS
10
6.15274
20
-2.64886
11
6.15291
21
-2.64942
0
LINE
8
BLACK
6
CONTINUOUS
10
6.15291
20
-2.64942
11
6.15297
21
-2.65
0
LINE
8
BLACK
6
CONTINUOUS
10
6.15297
20
-2.65
11
6.15295
21
-2.65014
0
LINE
8
BLACK
6
CONTINUOUS
10
6.15295
20
-2.65014
11
6.15295
21
-3.44986
0
LINE
8
BLACK
6
CONTINUOUS
10
6.15295
20
-3.44986
11
6.15297
21
-3.45
0
LINE
8
BLACK
6
CONTINUOUS
10
6.15297
20
-3.45
11
6.15291
21
-3.45058
0
LINE
8
BLACK
6
CONTINUOUS
10
6.15291
20
-3.45058
11
6.15274
21
-3.45114
0
LINE
8
BLACK
6
CONTINUOUS
10
6.15274
20
-3.45114
11
6.15247
21
-3.45165
0
LINE
8
BLACK
6
CONTINUOUS
10
6.15247
20
-3.45165
11
6.1521
21
-3.4521
0
LINE
8
BLACK
6
CONTINUOUS
10
6.1521
20
-3.4521
11
6.15165
21
-3.45247
0
LINE
8
BLACK
6
CONTINUOUS
10
6.15165
20
-3.45247
11
6.15114
21
-3.45274
0
LINE
8
BLACK
6
CONTINUOUS
10
6.15114
20
-3.45274
11
6.15058
21
-3.45291
0
LINE
8
BLACK
6
CONTINUOUS
10
6.15058
20
-3.45291
11
6.15014
21
-3.45295
0
LINE
8
BLACK
6
CONTINUOUS
10
6.15014
20
-3.45295
11
6.15
21
-3.45297
0
LINE
8
BLACK
6
CONTINUOUS
10
6.15
20
-3.45297
11
6.14986
21
-3.45295
0
LINE
8
BLACK
6
CONTINUOUS
10
6.14986
20
-3.45295
11
5.35014
21
-3.45295
0
LINE
8
BLACK
6
CONTINUOUS
10
5.35014
20
-3.45295
11
5.35
21
-3.45297
0
LINE
8
BLACK
6
CONTINUOUS
10
5.35
20
-3.45297
11
5.34942
21
-3.45291
0
LINE
8
BLACK
6
CONTINUOUS
10
5.34942
20
-3.45291
11
5.34886
21
-3.45274
0
LINE
8
BLACK
6
CONTINUOUS
10
5.34886
20
-3.45274
11
5.34835
21
-3.45247
0
LINE
8
BLACK
6
CONTINUOUS
10
5.34835
20
-3.45247
11
5.3479
21
-3.4521
0
LINE
8
BLACK
6
CONTINUOUS
10
5.3479
20
-3.4521
11
5.34753
21
-3.45165
0
LINE
8
BLACK
6
CONTINUOUS
10
5.34753
20
-3.45165
11
5.34726
21
-3.45114
0
LINE
8
BLACK
6
CONTINUOUS
10
5.34726
20
-3.45114
11
5.34709
21
-3.45058
0
LINE
8
BLACK
6
CONTINUOUS
10
5.34709
20
-3.45058
11
5.34703
21
-3.45
0
LINE
8
BLACK
6
CONTINUOUS
10
5.34703
20
-3.45
11
5.34705
21
-3.44986
0
LINE
8
BLACK
6
CONTINUOUS
10
5.34705
20
-3.44986
11
5.34705
21
-2.65015
0
LINE
8
BLACK
6
CONTINUOUS
10
5.34705
20
-2.65015
11
5.34703
21
-2.65
0
LINE
8
BLACK
6
CONTINUOUS
10
5.34703
20
-2.65
11
5.34709
21
-2.64942
0
LINE
8
BLACK
6
CONTINUOUS
10
5.34709
20
-2.64942
11
5.34726
21
-2.64886
0
LINE
8
BLACK
6
CONTINUOUS
10
5.34726
20
-2.64886
11
5.34753
21
-2.64835
0
LINE
8
BLACK
6
CONTINUOUS
10
5.34753
20
-2.64835
11
5.3479
21
-2.6479
0
LINE
8
BLACK
6
CONTINUOUS
10
5.3479
20
-2.6479
11
5.34835
21
-2.64753
0
LINE
8
BLACK
6
CONTINUOUS
10
5.34835
20
-2.64753
11
5.34886
21
-2.64726
0
LINE
8
BLACK
6
CONTINUOUS
10
5.34886
20
-2.64726
11
5.34942
21
-2.64709
0
LINE
8
BLACK
6
CONTINUOUS
10
5.34942
20
-2.64709
11
5.34986
21
-2.64705
0
LINE
8
BLACK
6
CONTINUOUS
10
5.34986
20
-2.64705
11
5.35
21
-2.64703
0
LINE
8
BLACK
6
CONTINUOUS
10
5.35
20
-2.64703
11
5.35014
21
-2.64705
0
LINE
8
BLACK
6
CONTINUOUS
10
5.35014
20
-2.64705
11
6.14986
21
-2.64705
0
LINE
8
BLACK
6
CONTINUOUS
10
6.14986
20
-2.64705
11
6.15
21
-2.64703
0
LINE
8
BLACK
6
CONTINUOUS
10
6.15
20
-2.64703
11
6.15014
21
-2.64705
0
LINE
8
BLACK
6
CONTINUOUS
10
5.35295
20
-2.65295
11
5.35295
21
-3.44705
0
LINE
8
BLACK
6
CONTINUOUS
10
5.35295
20
-3.44705
11
6.14705
21
-3.44705
0
LINE
8
BLACK
6
CONTINUOUS
10
6.14705
20
-3.44705
11
6.14705
21
-2.65295
0
LINE
8
BLACK
6
CONTINUOUS
10
6.14705
20
-2.65295
11
5.35295
21
-2.65295
  0
ENDSEC
  0
EOF
