%TF.GenerationSoftware,KiCad,Pcbnew,(5.1.12)-1*%
%TF.CreationDate,2021-12-19T12:16:22+05:30*%
%TF.ProjectId,RES_LED_CKT,5245535f-4c45-4445-9f43-4b542e6b6963,rev?*%
%TF.SameCoordinates,Original*%
%TF.FileFunction,Copper,L1,Top*%
%TF.FilePolarity,Positive*%
%FSLAX46Y46*%
G04 Gerber Fmt 4.6, Leading zero omitted, Abs format (unit mm)*
G04 Created by KiCad (PCBNEW (5.1.12)-1) date 2021-12-19 12:16:22*
%MOMM*%
%LPD*%
G01*
G04 APERTURE LIST*
%TA.AperFunction,SMDPad,CuDef*%
%ADD10R,0.900000X0.600000*%
%TD*%
%TA.AperFunction,ComponentPad*%
%ADD11C,1.500000*%
%TD*%
%TA.AperFunction,SMDPad,CuDef*%
%ADD12R,0.600000X0.900000*%
%TD*%
%TA.AperFunction,Conductor*%
%ADD13C,0.500000*%
%TD*%
%TA.AperFunction,Conductor*%
%ADD14C,0.254000*%
%TD*%
%TA.AperFunction,Conductor*%
%ADD15C,0.100000*%
%TD*%
G04 APERTURE END LIST*
D10*
%TO.P,R1,1*%
%TO.N,Net-(P1-Pad1)*%
X139700000Y-78740000D03*
%TO.P,R1,2*%
%TO.N,Net-(L1-Pad1)*%
X139700000Y-77240000D03*
%TD*%
D11*
%TO.P,P2,1*%
%TO.N,Net-(L1-Pad2)*%
X152400000Y-71120000D03*
%TD*%
%TO.P,P1,1*%
%TO.N,Net-(P1-Pad1)*%
X152400000Y-73660000D03*
%TD*%
D12*
%TO.P,L1,1*%
%TO.N,Net-(L1-Pad1)*%
X139700000Y-73660000D03*
%TO.P,L1,2*%
%TO.N,Net-(L1-Pad2)*%
X141200000Y-73660000D03*
%TD*%
D13*
%TO.N,Net-(L1-Pad1)*%
X139700000Y-73660000D02*
X139700000Y-77150000D01*
%TO.N,Net-(L1-Pad2)*%
X141200000Y-73660000D02*
X144780000Y-73660000D01*
X144780000Y-73660000D02*
X147320000Y-71120000D01*
X147320000Y-71120000D02*
X152400000Y-71120000D01*
%TD*%
D14*
%TO.N,Net-(P1-Pad1)*%
X154813000Y-86233000D02*
X137287000Y-86233000D01*
X137287000Y-79040000D01*
X138611928Y-79040000D01*
X138624188Y-79164482D01*
X138660498Y-79284180D01*
X138719463Y-79394494D01*
X138798815Y-79491185D01*
X138895506Y-79570537D01*
X139005820Y-79629502D01*
X139125518Y-79665812D01*
X139250000Y-79678072D01*
X139414250Y-79675000D01*
X139573000Y-79516250D01*
X139573000Y-78867000D01*
X139827000Y-78867000D01*
X139827000Y-79516250D01*
X139985750Y-79675000D01*
X140150000Y-79678072D01*
X140274482Y-79665812D01*
X140394180Y-79629502D01*
X140504494Y-79570537D01*
X140601185Y-79491185D01*
X140680537Y-79394494D01*
X140739502Y-79284180D01*
X140775812Y-79164482D01*
X140788072Y-79040000D01*
X140785000Y-79025750D01*
X140626250Y-78867000D01*
X139827000Y-78867000D01*
X139573000Y-78867000D01*
X138773750Y-78867000D01*
X138615000Y-79025750D01*
X138611928Y-79040000D01*
X137287000Y-79040000D01*
X137287000Y-76940000D01*
X138611928Y-76940000D01*
X138611928Y-77540000D01*
X138624188Y-77664482D01*
X138660498Y-77784180D01*
X138719463Y-77894494D01*
X138797842Y-77990000D01*
X138719463Y-78085506D01*
X138660498Y-78195820D01*
X138624188Y-78315518D01*
X138611928Y-78440000D01*
X138615000Y-78454250D01*
X138773750Y-78613000D01*
X139573000Y-78613000D01*
X139573000Y-78593000D01*
X139827000Y-78593000D01*
X139827000Y-78613000D01*
X140626250Y-78613000D01*
X140785000Y-78454250D01*
X140788072Y-78440000D01*
X140775812Y-78315518D01*
X140739502Y-78195820D01*
X140680537Y-78085506D01*
X140602158Y-77990000D01*
X140680537Y-77894494D01*
X140739502Y-77784180D01*
X140775812Y-77664482D01*
X140788072Y-77540000D01*
X140788072Y-76940000D01*
X140775812Y-76815518D01*
X140739502Y-76695820D01*
X140680537Y-76585506D01*
X140601185Y-76488815D01*
X140585000Y-76475532D01*
X140585000Y-74661647D01*
X140655820Y-74699502D01*
X140775518Y-74735812D01*
X140900000Y-74748072D01*
X141500000Y-74748072D01*
X141624482Y-74735812D01*
X141744180Y-74699502D01*
X141854494Y-74640537D01*
X141883182Y-74616993D01*
X151622612Y-74616993D01*
X151688137Y-74855860D01*
X151935116Y-74971760D01*
X152199960Y-75037250D01*
X152472492Y-75049812D01*
X152742238Y-75008965D01*
X152998832Y-74916277D01*
X153111863Y-74855860D01*
X153177388Y-74616993D01*
X152400000Y-73839605D01*
X151622612Y-74616993D01*
X141883182Y-74616993D01*
X141951185Y-74561185D01*
X141964468Y-74545000D01*
X144736531Y-74545000D01*
X144780000Y-74549281D01*
X144823469Y-74545000D01*
X144823477Y-74545000D01*
X144953490Y-74532195D01*
X145120313Y-74481589D01*
X145274059Y-74399411D01*
X145408817Y-74288817D01*
X145436534Y-74255044D01*
X145959086Y-73732492D01*
X151010188Y-73732492D01*
X151051035Y-74002238D01*
X151143723Y-74258832D01*
X151204140Y-74371863D01*
X151443007Y-74437388D01*
X152220395Y-73660000D01*
X152579605Y-73660000D01*
X153356993Y-74437388D01*
X153595860Y-74371863D01*
X153711760Y-74124884D01*
X153777250Y-73860040D01*
X153789812Y-73587508D01*
X153748965Y-73317762D01*
X153656277Y-73061168D01*
X153595860Y-72948137D01*
X153356993Y-72882612D01*
X152579605Y-73660000D01*
X152220395Y-73660000D01*
X151443007Y-72882612D01*
X151204140Y-72948137D01*
X151088240Y-73195116D01*
X151022750Y-73459960D01*
X151010188Y-73732492D01*
X145959086Y-73732492D01*
X147686579Y-72005000D01*
X151326315Y-72005000D01*
X151517114Y-72195799D01*
X151743957Y-72347371D01*
X151843279Y-72388511D01*
X151801168Y-72403723D01*
X151688137Y-72464140D01*
X151622612Y-72703007D01*
X152400000Y-73480395D01*
X153177388Y-72703007D01*
X153111863Y-72464140D01*
X152953523Y-72389836D01*
X153056043Y-72347371D01*
X153282886Y-72195799D01*
X153475799Y-72002886D01*
X153627371Y-71776043D01*
X153731775Y-71523989D01*
X153785000Y-71256411D01*
X153785000Y-70983589D01*
X153731775Y-70716011D01*
X153627371Y-70463957D01*
X153475799Y-70237114D01*
X153282886Y-70044201D01*
X153056043Y-69892629D01*
X152803989Y-69788225D01*
X152536411Y-69735000D01*
X152263589Y-69735000D01*
X151996011Y-69788225D01*
X151743957Y-69892629D01*
X151517114Y-70044201D01*
X151326315Y-70235000D01*
X147363465Y-70235000D01*
X147319999Y-70230719D01*
X147276533Y-70235000D01*
X147276523Y-70235000D01*
X147146510Y-70247805D01*
X146979687Y-70298411D01*
X146825941Y-70380589D01*
X146825939Y-70380590D01*
X146825940Y-70380590D01*
X146724953Y-70463468D01*
X146724951Y-70463470D01*
X146691183Y-70491183D01*
X146663470Y-70524951D01*
X144413422Y-72775000D01*
X141964468Y-72775000D01*
X141951185Y-72758815D01*
X141854494Y-72679463D01*
X141744180Y-72620498D01*
X141624482Y-72584188D01*
X141500000Y-72571928D01*
X140900000Y-72571928D01*
X140775518Y-72584188D01*
X140655820Y-72620498D01*
X140545506Y-72679463D01*
X140450000Y-72757842D01*
X140354494Y-72679463D01*
X140244180Y-72620498D01*
X140124482Y-72584188D01*
X140000000Y-72571928D01*
X139400000Y-72571928D01*
X139275518Y-72584188D01*
X139155820Y-72620498D01*
X139045506Y-72679463D01*
X138948815Y-72758815D01*
X138869463Y-72855506D01*
X138810498Y-72965820D01*
X138774188Y-73085518D01*
X138761928Y-73210000D01*
X138761928Y-74110000D01*
X138774188Y-74234482D01*
X138810498Y-74354180D01*
X138815000Y-74362603D01*
X138815001Y-76475532D01*
X138798815Y-76488815D01*
X138719463Y-76585506D01*
X138660498Y-76695820D01*
X138624188Y-76815518D01*
X138611928Y-76940000D01*
X137287000Y-76940000D01*
X137287000Y-68707000D01*
X154813000Y-68707000D01*
X154813000Y-86233000D01*
%TA.AperFunction,Conductor*%
D15*
G36*
X154813000Y-86233000D02*
G01*
X137287000Y-86233000D01*
X137287000Y-79040000D01*
X138611928Y-79040000D01*
X138624188Y-79164482D01*
X138660498Y-79284180D01*
X138719463Y-79394494D01*
X138798815Y-79491185D01*
X138895506Y-79570537D01*
X139005820Y-79629502D01*
X139125518Y-79665812D01*
X139250000Y-79678072D01*
X139414250Y-79675000D01*
X139573000Y-79516250D01*
X139573000Y-78867000D01*
X139827000Y-78867000D01*
X139827000Y-79516250D01*
X139985750Y-79675000D01*
X140150000Y-79678072D01*
X140274482Y-79665812D01*
X140394180Y-79629502D01*
X140504494Y-79570537D01*
X140601185Y-79491185D01*
X140680537Y-79394494D01*
X140739502Y-79284180D01*
X140775812Y-79164482D01*
X140788072Y-79040000D01*
X140785000Y-79025750D01*
X140626250Y-78867000D01*
X139827000Y-78867000D01*
X139573000Y-78867000D01*
X138773750Y-78867000D01*
X138615000Y-79025750D01*
X138611928Y-79040000D01*
X137287000Y-79040000D01*
X137287000Y-76940000D01*
X138611928Y-76940000D01*
X138611928Y-77540000D01*
X138624188Y-77664482D01*
X138660498Y-77784180D01*
X138719463Y-77894494D01*
X138797842Y-77990000D01*
X138719463Y-78085506D01*
X138660498Y-78195820D01*
X138624188Y-78315518D01*
X138611928Y-78440000D01*
X138615000Y-78454250D01*
X138773750Y-78613000D01*
X139573000Y-78613000D01*
X139573000Y-78593000D01*
X139827000Y-78593000D01*
X139827000Y-78613000D01*
X140626250Y-78613000D01*
X140785000Y-78454250D01*
X140788072Y-78440000D01*
X140775812Y-78315518D01*
X140739502Y-78195820D01*
X140680537Y-78085506D01*
X140602158Y-77990000D01*
X140680537Y-77894494D01*
X140739502Y-77784180D01*
X140775812Y-77664482D01*
X140788072Y-77540000D01*
X140788072Y-76940000D01*
X140775812Y-76815518D01*
X140739502Y-76695820D01*
X140680537Y-76585506D01*
X140601185Y-76488815D01*
X140585000Y-76475532D01*
X140585000Y-74661647D01*
X140655820Y-74699502D01*
X140775518Y-74735812D01*
X140900000Y-74748072D01*
X141500000Y-74748072D01*
X141624482Y-74735812D01*
X141744180Y-74699502D01*
X141854494Y-74640537D01*
X141883182Y-74616993D01*
X151622612Y-74616993D01*
X151688137Y-74855860D01*
X151935116Y-74971760D01*
X152199960Y-75037250D01*
X152472492Y-75049812D01*
X152742238Y-75008965D01*
X152998832Y-74916277D01*
X153111863Y-74855860D01*
X153177388Y-74616993D01*
X152400000Y-73839605D01*
X151622612Y-74616993D01*
X141883182Y-74616993D01*
X141951185Y-74561185D01*
X141964468Y-74545000D01*
X144736531Y-74545000D01*
X144780000Y-74549281D01*
X144823469Y-74545000D01*
X144823477Y-74545000D01*
X144953490Y-74532195D01*
X145120313Y-74481589D01*
X145274059Y-74399411D01*
X145408817Y-74288817D01*
X145436534Y-74255044D01*
X145959086Y-73732492D01*
X151010188Y-73732492D01*
X151051035Y-74002238D01*
X151143723Y-74258832D01*
X151204140Y-74371863D01*
X151443007Y-74437388D01*
X152220395Y-73660000D01*
X152579605Y-73660000D01*
X153356993Y-74437388D01*
X153595860Y-74371863D01*
X153711760Y-74124884D01*
X153777250Y-73860040D01*
X153789812Y-73587508D01*
X153748965Y-73317762D01*
X153656277Y-73061168D01*
X153595860Y-72948137D01*
X153356993Y-72882612D01*
X152579605Y-73660000D01*
X152220395Y-73660000D01*
X151443007Y-72882612D01*
X151204140Y-72948137D01*
X151088240Y-73195116D01*
X151022750Y-73459960D01*
X151010188Y-73732492D01*
X145959086Y-73732492D01*
X147686579Y-72005000D01*
X151326315Y-72005000D01*
X151517114Y-72195799D01*
X151743957Y-72347371D01*
X151843279Y-72388511D01*
X151801168Y-72403723D01*
X151688137Y-72464140D01*
X151622612Y-72703007D01*
X152400000Y-73480395D01*
X153177388Y-72703007D01*
X153111863Y-72464140D01*
X152953523Y-72389836D01*
X153056043Y-72347371D01*
X153282886Y-72195799D01*
X153475799Y-72002886D01*
X153627371Y-71776043D01*
X153731775Y-71523989D01*
X153785000Y-71256411D01*
X153785000Y-70983589D01*
X153731775Y-70716011D01*
X153627371Y-70463957D01*
X153475799Y-70237114D01*
X153282886Y-70044201D01*
X153056043Y-69892629D01*
X152803989Y-69788225D01*
X152536411Y-69735000D01*
X152263589Y-69735000D01*
X151996011Y-69788225D01*
X151743957Y-69892629D01*
X151517114Y-70044201D01*
X151326315Y-70235000D01*
X147363465Y-70235000D01*
X147319999Y-70230719D01*
X147276533Y-70235000D01*
X147276523Y-70235000D01*
X147146510Y-70247805D01*
X146979687Y-70298411D01*
X146825941Y-70380589D01*
X146825939Y-70380590D01*
X146825940Y-70380590D01*
X146724953Y-70463468D01*
X146724951Y-70463470D01*
X146691183Y-70491183D01*
X146663470Y-70524951D01*
X144413422Y-72775000D01*
X141964468Y-72775000D01*
X141951185Y-72758815D01*
X141854494Y-72679463D01*
X141744180Y-72620498D01*
X141624482Y-72584188D01*
X141500000Y-72571928D01*
X140900000Y-72571928D01*
X140775518Y-72584188D01*
X140655820Y-72620498D01*
X140545506Y-72679463D01*
X140450000Y-72757842D01*
X140354494Y-72679463D01*
X140244180Y-72620498D01*
X140124482Y-72584188D01*
X140000000Y-72571928D01*
X139400000Y-72571928D01*
X139275518Y-72584188D01*
X139155820Y-72620498D01*
X139045506Y-72679463D01*
X138948815Y-72758815D01*
X138869463Y-72855506D01*
X138810498Y-72965820D01*
X138774188Y-73085518D01*
X138761928Y-73210000D01*
X138761928Y-74110000D01*
X138774188Y-74234482D01*
X138810498Y-74354180D01*
X138815000Y-74362603D01*
X138815001Y-76475532D01*
X138798815Y-76488815D01*
X138719463Y-76585506D01*
X138660498Y-76695820D01*
X138624188Y-76815518D01*
X138611928Y-76940000D01*
X137287000Y-76940000D01*
X137287000Y-68707000D01*
X154813000Y-68707000D01*
X154813000Y-86233000D01*
G37*
%TD.AperFunction*%
%TD*%
M02*
